<?xml version="1.0" encoding="UTF-8" standalone="no"?>
<!-- Created with Inkscape (http://www.inkscape.org/) -->

<svg
   width="53.125114mm"
   height="50.771175mm"
   viewBox="0 0 53.125114 50.771175"
   version="1.1"
   id="svg1"
   inkscape:version="1.3 (0e150ed6c4, 2023-07-21)"
   sodipodi:docname="evolution.svg"
   xmlns:inkscape="http://www.inkscape.org/namespaces/inkscape"
   xmlns:sodipodi="http://sodipodi.sourceforge.net/DTD/sodipodi-0.dtd"
   xmlns="http://www.w3.org/2000/svg"
   xmlns:svg="http://www.w3.org/2000/svg">
  <sodipodi:namedview
     id="namedview1"
     pagecolor="#ffffff"
     bordercolor="#000000"
     borderopacity="0.25"
     inkscape:showpageshadow="2"
     inkscape:pageopacity="0.0"
     inkscape:pagecheckerboard="0"
     inkscape:deskcolor="#d1d1d1"
     inkscape:document-units="mm"
     inkscape:zoom="0.52248527"
     inkscape:cx="510.06223"
     inkscape:cy="-356.94786"
     inkscape:window-width="2560"
     inkscape:window-height="1369"
     inkscape:window-x="1912"
     inkscape:window-y="-8"
     inkscape:window-maximized="1"
     inkscape:current-layer="layer1" />
  <defs
     id="defs1" />
  <g
     inkscape:label="Layer 1"
     inkscape:groupmode="layer"
     id="layer1"
     transform="translate(-204.11222,97.042363)">
    <g
       id="g170"
       transform="matrix(0.88788363,0,0,0.88786175,-580.82493,-2011.8679)"
       style="fill:none;stroke:#4d4d4d;stroke-width:1.12629;stroke-dasharray:none;stroke-opacity:1"
       inkscape:export-filename="schattenorigami\assets\misc\evol_shaped.svg"
       inkscape:export-xdpi="96"
       inkscape:export-ydpi="96">
      <path
         style="fill:none;fill-opacity:1;stroke:#4d4d4d;stroke-width:1.12629;stroke-linecap:butt;stroke-linejoin:miter;stroke-dasharray:none;stroke-opacity:1"
         d="m 903.99575,2178.6301 c -2.44537,-3.9672 -3.38889,-3.6536 -2.80073,-8.8942 0.63192,-1.1969 1.71751,-1.7133 2.81425,-2.2129 4.11487,0.2951 4.74537,1.3729 8.04015,4.5736 z"
         id="path146"
         sodipodi:nodetypes="ccccc" />
      <path
         style="fill:none;fill-opacity:1;stroke:#4d4d4d;stroke-width:1.12629;stroke-linecap:butt;stroke-linejoin:miter;stroke-dasharray:none;stroke-opacity:1"
         d="m 928.20115,2185.1366 6.2728,0.6373 c 2.4857,0.3669 5.38525,3.4219 8.50315,5.3691 l -0.90935,0.8765 v 0 c -3.14353,0 -10.8763,1.5386 -12.9173,2.5095 l -1.0117,-1.2701"
         id="path147"
         sodipodi:nodetypes="ccccscc" />
      <path
         style="fill:none;fill-opacity:1;stroke:#4d4d4d;stroke-width:1.12629;stroke-linecap:butt;stroke-linejoin:miter;stroke-dasharray:none;stroke-opacity:1"
         d="m 913.36159,2197.1532 -0.68189,6.2681 c -0.17844,2.2596 2.2443,6.0632 3.50008,9.518 l 1.02864,-0.7907 h -1e-5 c 0,0 3.76814,-10.3182 5.14254,-12.1125 l -1.03179,-1.2538"
         id="path148"
         sodipodi:nodetypes="ccccscc" />
      <path
         style="fill:none;fill-opacity:1;stroke:#4d4d4d;stroke-width:1.12629;stroke-linecap:butt;stroke-linejoin:miter;stroke-dasharray:none;stroke-opacity:1"
         d="m 903.99561,2178.6302 -3.12164,6.2685 -6.52093,1.8653 c -1.53698,1.068 -2.93063,1.7061 -4.61998,3.2313 -0.62894,0.3204 -2.95964,4.1802 -4.79563,7.2164 l 1.845,0.4297 v 0 c 0,0 12.62798,-4.9441 18.57376,-4.6955 l 9.64313,5.068 12.63593,1.54 1.0676,-12.6349 -2.909,-10.3392 c 0.7766,-5.7709 5.9551,-13.6809 8.4161,-17.3377 v 0 l 0.10335,-1.7494 c -2.9945,1.0884 -6.22595,1.9562 -8.19605,3.0446 l -4.1218,3.8464 -3.18146,5.9896 -2.99211,0.7716 -3.78852,0.9779"
         id="path149"
         sodipodi:nodetypes="ccccccsccccccccccccc" />
      <path
         style="fill:none;stroke:#4d4d4d;stroke-width:1.12629;stroke-linecap:butt;stroke-linejoin:miter;stroke-dasharray:none;stroke-opacity:1"
         d="m 918.81399,2170.3733 0.75839,2.5087"
         id="path150"
         sodipodi:nodetypes="cc" />
      <path
         style="fill:none;stroke:#4d4d4d;stroke-width:1.12629;stroke-linecap:butt;stroke-linejoin:miter;stroke-dasharray:none;stroke-opacity:1"
         d="m 924.54175,2175.1837 -0.7826,-6.1654 -1.7637,-4.6346"
         id="path151"
         sodipodi:nodetypes="ccc" />
      <path
         style="fill:none;stroke:#4d4d4d;stroke-width:1.12629;stroke-linecap:butt;stroke-linejoin:miter;stroke-dasharray:none;stroke-opacity:1"
         d="m 900.87358,2184.8986 2.29601,1.2638"
         id="path152"
         sodipodi:nodetypes="cc" />
      <path
         style="fill:none;stroke:#4d4d4d;stroke-width:1.12629;stroke-linecap:butt;stroke-linejoin:miter;stroke-dasharray:none;stroke-opacity:1"
         d="m 904.38663,2191.502 -5.86746,-2.0485 -4.16613,-2.6895"
         id="path153"
         sodipodi:nodetypes="ccc" />
      <path
         style="fill:none;stroke:#4d4d4d;stroke-width:1.12629;stroke-linecap:butt;stroke-linejoin:miter;stroke-dasharray:none;stroke-opacity:1"
         d="m 901.84155,2168.9539 c 1.10961,2.9381 1.53634,6.4806 2.15418,9.6768"
         id="path154"
         sodipodi:nodetypes="cc" />
      <path
         style="fill:none;stroke:#4d4d4d;stroke-width:1.12629;stroke-linecap:butt;stroke-linejoin:miter;stroke-dasharray:none;stroke-opacity:1"
         d="m 902.25114,2182.1333 2.37757,10.4303"
         id="path155"
         sodipodi:nodetypes="cc" />
      <path
         style="fill:none;stroke:#4d4d4d;stroke-width:1.12629;stroke-linecap:butt;stroke-linejoin:miter;stroke-dasharray:none;stroke-opacity:1"
         d="m 915.82126,2171.1448 9.70839,4.4963"
         id="path156"
         sodipodi:nodetypes="cc" />
      <path
         style="fill:none;stroke:#4d4d4d;stroke-width:1.12629;stroke-linecap:butt;stroke-linejoin:miter;stroke-dasharray:none;stroke-opacity:1"
         d="m 903.99576,2178.6301 8.0376,-6.5073"
         id="path157" />
      <path
         style="fill:none;stroke:#4d4d4d;stroke-width:1.12629;stroke-linecap:butt;stroke-linejoin:miter;stroke-miterlimit:4;stroke-dasharray:none;stroke-dashoffset:0;stroke-opacity:1"
         d="m 914.99932,2198.0139 -10.37061,-5.4503"
         id="path158"
         sodipodi:nodetypes="cc" />
      <path
         style="fill:none;stroke:#4d4d4d;stroke-width:1.12629;stroke-linecap:butt;stroke-linejoin:miter;stroke-miterlimit:4;stroke-dasharray:none;stroke-dashoffset:0;stroke-opacity:1"
         d="m 928.70285,2186.919 -3.1732,-11.2779"
         id="path159"
         sodipodi:nodetypes="cc" />
      <path
         style="fill:none;stroke:#4d4d4d;stroke-width:1.12629;stroke-linecap:butt;stroke-linejoin:miter;stroke-miterlimit:4;stroke-dasharray:none;stroke-dashoffset:0;stroke-opacity:1"
         d="M 927.63525,2199.5539 908.04212,2175.354"
         id="path160" />
      <path
         style="fill:none;stroke:#4d4d4d;stroke-width:1.12629;stroke-linecap:butt;stroke-linejoin:miter;stroke-miterlimit:4;stroke-dasharray:none;stroke-dashoffset:0;stroke-opacity:1"
         d="m 886.78243,2197.6414 c 4.57176,-2.9589 10.45809,-5.853 17.84628,-5.0778"
         id="path161"
         sodipodi:nodetypes="cc" />
      <path
         style="fill:none;stroke:#4d4d4d;stroke-width:1.12629;stroke-linecap:butt;stroke-linejoin:miter;stroke-miterlimit:4;stroke-dasharray:none;stroke-dashoffset:0;stroke-opacity:1"
         d="m 921.98355,2199.6172 c -3.51825,2.9694 -4.86113,7.3087 -4.77513,12.5314"
         id="path162"
         sodipodi:nodetypes="cc" />
      <path
         style="fill:none;stroke:#4d4d4d;stroke-width:1.12629;stroke-linecap:butt;stroke-linejoin:miter;stroke-miterlimit:4;stroke-dasharray:none;stroke-dashoffset:0;stroke-opacity:1"
         d="m 934.20995,2159.2421 c -3.8455,3.856 -7.901,9.0112 -8.6803,16.399"
         id="path163"
         sodipodi:nodetypes="cc" />
      <path
         style="fill:none;stroke:#4d4d4d;stroke-width:1.12629;stroke-linecap:butt;stroke-linejoin:miter;stroke-miterlimit:4;stroke-dasharray:none;stroke-dashoffset:0;stroke-opacity:1"
         d="m 928.81705,2194.0824 c 3.6365,-2.8233 8.1603,-3.2338 13.2507,-2.0629"
         id="path164"
         sodipodi:nodetypes="cc" />
      <path
         style="fill:none;stroke:#4d4d4d;stroke-width:1.12629;stroke-linecap:butt;stroke-linejoin:miter;stroke-dasharray:none;stroke-opacity:1"
         d="m 903.08554,2168.0215 c 2.64287,1.6967 5.96645,2.8058 8.964,4.0752"
         id="path165"
         sodipodi:nodetypes="cc" />
      <path
         id="path166"
         style="fill:none;fill-opacity:1;stroke:#4d4d4d;stroke-width:1.12629;stroke-linecap:butt;stroke-linejoin:miter;stroke-dasharray:none;stroke-opacity:1"
         d="m 901.19503,2169.7359 c -0.0628,1.5762 -0.20792,3.1224 0.35535,4.927 l 2.44523,3.9673"
         sodipodi:nodetypes="ccc" />
      <path
         style="fill:none;stroke:#4d4d4d;stroke-width:1.12629;stroke-linecap:butt;stroke-linejoin:miter;stroke-dasharray:none;stroke-opacity:1"
         d="m 901.55038,2174.6629 0.8449,0.096 0.97234,0.3535"
         id="path167"
         sodipodi:nodetypes="ccc" />
      <path
         id="path168"
         style="fill:none;fill-opacity:1;stroke:#4d4d4d;stroke-width:1.12629;stroke-linecap:butt;stroke-linejoin:miter;stroke-dasharray:none;stroke-opacity:1"
         d="m 904.0094,2167.5231 c 1.55478,0.2665 3.09732,0.4464 4.74524,1.3728 l 3.37167,3.2173"
         sodipodi:nodetypes="ccc" />
      <path
         style="fill:none;stroke:#4d4d4d;stroke-width:1.12629;stroke-linecap:butt;stroke-linejoin:miter;stroke-dasharray:none;stroke-opacity:1"
         d="m 908.75464,2168.8959 -0.0816,0.8465 0.14345,1.0246"
         id="path169"
         sodipodi:nodetypes="ccc" />
      <path
         style="fill:none;stroke:#4d4d4d;stroke-width:1.12629;stroke-linecap:round;stroke-linejoin:miter;stroke-miterlimit:4;stroke-dasharray:none;stroke-opacity:1"
         d="m 901.19502,2169.7359 c 0.93779,-1.5801 1.92975,-1.7483 2.81425,-2.2129"
         id="path170"
         sodipodi:nodetypes="cc" />
    </g>
  </g>
</svg>
