<?xml version="1.0" encoding="UTF-8" standalone="no"?>
<!-- Created with Inkscape (http://www.inkscape.org/) -->

<svg
   width="112.75939mm"
   height="44.532944mm"
   viewBox="0 0 112.75939 44.532944"
   version="1.1"
   id="svg1"
   inkscape:version="1.3 (0e150ed6c4, 2023-07-21)"
   sodipodi:docname="index_logo.svg"
   xml:space="preserve"
   xmlns:inkscape="http://www.inkscape.org/namespaces/inkscape"
   xmlns:sodipodi="http://sodipodi.sourceforge.net/DTD/sodipodi-0.dtd"
   xmlns="http://www.w3.org/2000/svg"
   xmlns:svg="http://www.w3.org/2000/svg"><sodipodi:namedview
     id="namedview1"
     pagecolor="#ffffff"
     bordercolor="#666666"
     borderopacity="1.0"
     inkscape:showpageshadow="2"
     inkscape:pageopacity="0.0"
     inkscape:pagecheckerboard="0"
     inkscape:deskcolor="#d1d1d1"
     inkscape:document-units="mm"
     inkscape:zoom="2.1362654"
     inkscape:cx="226.0955"
     inkscape:cy="77.003541"
     inkscape:window-width="2560"
     inkscape:window-height="1377"
     inkscape:window-x="1912"
     inkscape:window-y="-8"
     inkscape:window-maximized="1"
     inkscape:current-layer="g1" /><defs
     id="defs1"><filter
       inkscape:collect="always"
       style="color-interpolation-filters:sRGB"
       id="filter1"
       x="-0.050488362"
       y="-0.15392294"
       width="1.1017661"
       height="1.3053854"><feGaussianBlur
         inkscape:collect="always"
         stdDeviation="3.3653865"
         id="feGaussianBlur1" /></filter></defs><g
     inkscape:label="Ebene 1"
     inkscape:groupmode="layer"
     id="layer1"
     transform="translate(-771.77114,-2159.2365)"><g
       id="g204"
       transform="matrix(0.91665329,0,0,0.91665329,76.561028,147.64348)"
       style="stroke-width:1.09092"><g
         id="g165"
         transform="matrix(0.6911655,0,0,0.6911655,844.23204,1934.5557)"
         style="stroke-width:1.57838"><g
           aria-label="schatten "
           id="g126"
           style="font-size:3.88056px;line-height:1.25;font-family:'Berlin Sans FB Demi';-inkscape-font-specification:'Berlin Sans FB Demi';letter-spacing:0px;word-spacing:0px;fill:#4d4d4d;fill-opacity:1;stroke:#75b298;stroke-width:0.0446776;stroke-opacity:1"
           transform="matrix(9.2398641,-4.8763876e-8,3.3472369e-8,9.4558338,-6739.7556,-11972.879)" /><g
           id="g206"
           transform="translate(9.0876642,5.0113712)"><g
             id="g1"
             transform="translate(5.8646403,5.241246)"><g
               id="g201"
               transform="translate(-2.7841253,-2.7492161)"
               style="mix-blend-mode:normal;fill:#000000;fill-opacity:1;stroke-width:1.57838;filter:url(#filter1)"><g
                 id="g174"
                 transform="matrix(9.2398641,-4.8763876e-8,3.3472369e-8,9.4558338,-6558.43,-12269.183)"
                 style="fill:#000000;fill-opacity:1;stroke-width:0.168862"><g
                   aria-label="origami "
                   id="g173"
                   style="font-size:3.88056px;line-height:1.25;font-family:'Berlin Sans FB Demi';-inkscape-font-specification:'Berlin Sans FB Demi';letter-spacing:0px;word-spacing:0px;fill:#000000;fill-opacity:1;stroke-width:0.0446776"
                   transform="translate(-23.473128,29.794928)"><g
                     id="g172"
                     style="fill:#000000;fill-opacity:1;stroke-width:0.0446776"><g
                       id="g171"
                       style="fill:#000000;fill-opacity:1;stroke-width:0.0446776"><path
                         d="m 726.14959,1310.6952 q 0.37706,0 0.57412,0.252 0.19706,0.2501 0.19706,0.6973 0,0.4377 -0.20464,0.6783 -0.20463,0.2388 -0.56654,0.2388 -0.34675,0 -0.55139,-0.2445 -0.20274,-0.2444 -0.20274,-0.6726 0,-0.4472 0.19327,-0.6973 0.19516,-0.252 0.56086,-0.252 z m 0.004,1.3737 q 0.108,0 0.16106,-0.1004 0.055,-0.1004 0.055,-0.343 0,-0.2406 -0.0531,-0.3373 -0.053,-0.097 -0.15916,-0.097 -0.10422,0 -0.15917,0.095 -0.055,0.093 -0.055,0.343 0,0.4396 0.21033,0.4396 z"
                         style="font-family:'Tw Cen MT Condensed Extra Bold';-inkscape-font-specification:'Tw Cen MT Condensed Extra Bold, ';fill:#000000;fill-opacity:1;stroke-width:0.0446776"
                         id="path165" /><path
                         d="m 727.77154,1310.7558 v 0.2918 h 0.008 q 0.19706,-0.3411 0.41496,-0.3411 0.0322,0 0.0891,0.011 v 0.54 q -0.10043,-0.017 -0.18569,-0.017 -0.30317,0 -0.30317,0.3922 v 0.8659 h -0.54949 v -1.7432 z"
                         style="font-family:'Tw Cen MT Condensed Extra Bold';-inkscape-font-specification:'Tw Cen MT Condensed Extra Bold, ';fill:#000000;fill-opacity:1;stroke-width:0.0446776"
                         id="path166" /><path
                         d="m 728.59582,1310.7558 h 0.55139 v 1.7432 h -0.55139 z"
                         style="font-family:'Tw Cen MT Condensed Extra Bold';-inkscape-font-specification:'Tw Cen MT Condensed Extra Bold, ';fill:#000000;fill-opacity:1;stroke-width:0.0446776"
                         id="path167"
                         sodipodi:nodetypes="ccccc" /><path
                         d="m 730.45648,1312.5066 v -0.2482 q -0.16106,0.2368 -0.38275,0.2368 -0.28043,0 -0.43581,-0.233 -0.15537,-0.235 -0.15537,-0.6632 0,-0.4188 0.15158,-0.6575 0.15159,-0.2388 0.41497,-0.2388 0.23495,0 0.39601,0.2369 h 0.008 v -0.1838 h 0.55139 v 1.6144 q 0,0.2217 -0.0796,0.4206 -0.0777,0.199 -0.27665,0.3127 -0.19895,0.1137 -0.4358,0.1137 -0.23685,0 -0.44528,-0.127 -0.20843,-0.1269 -0.27096,-0.4244 h 0.49265 q 0.0853,0.1326 0.21222,0.1326 0.108,0 0.1819,-0.085 0.0739,-0.083 0.0739,-0.2065 z m 0,-0.9152 q 0,-0.4225 -0.21222,-0.4225 -0.10421,0 -0.16485,0.1023 -0.0606,0.1023 -0.0606,0.2842 0,0.4775 0.22169,0.4775 0.21601,0 0.21601,-0.4415 z"
                         style="font-family:'Tw Cen MT Condensed Extra Bold';-inkscape-font-specification:'Tw Cen MT Condensed Extra Bold, ';fill:#000000;fill-opacity:1;stroke-width:0.0446776"
                         id="path168" /><path
                         d="m 732.29254,1312.499 v -0.2292 h -0.008 q -0.10043,0.1477 -0.19517,0.2179 -0.0928,0.07 -0.2198,0.07 -0.24822,0 -0.39601,-0.2539 -0.1478,-0.2539 -0.1478,-0.6898 0,-0.4187 0.14969,-0.6669 0.14969,-0.2482 0.39412,-0.2482 0.13074,0 0.2217,0.066 0.0909,0.064 0.18948,0.2084 h 0.008 v -0.2179 h 0.55138 v 1.7432 z m 0,-0.8811 q 0,-0.4339 -0.21221,-0.4339 -0.21412,0 -0.21412,0.4339 0,0.451 0.2217,0.451 0.20463,0 0.20463,-0.451 z"
                         style="font-family:'Tw Cen MT Condensed Extra Bold';-inkscape-font-specification:'Tw Cen MT Condensed Extra Bold, ';fill:#000000;fill-opacity:1;stroke-width:0.0446776"
                         id="path169" /><path
                         d="m 733.81028,1310.7558 v 0.2141 q 0.23496,-0.2747 0.47749,-0.2747 0.2918,0 0.37707,0.3012 0.13264,-0.1572 0.24632,-0.2292 0.11559,-0.072 0.26907,-0.072 0.38464,0 0.38464,0.5381 v 1.2657 h -0.55139 v -1.0289 q 0,-0.252 -0.16295,-0.252 -0.16674,0 -0.16674,0.2483 v 1.0326 h -0.55139 v -1.0592 q 0,-0.097 -0.0455,-0.1591 -0.0436,-0.063 -0.11368,-0.063 -0.0739,0 -0.11938,0.061 -0.0436,0.061 -0.0436,0.1648 v 1.0554 h -0.54949 v -1.7432 z"
                         style="font-family:'Tw Cen MT Condensed Extra Bold';-inkscape-font-specification:'Tw Cen MT Condensed Extra Bold, ';fill:#000000;fill-opacity:1;stroke-width:0.0446776"
                         id="path170" /><path
                         d="m 735.98556,1310.7558 h 0.55139 v 1.7432 h -0.55139 z"
                         style="font-family:'Tw Cen MT Condensed Extra Bold';-inkscape-font-specification:'Tw Cen MT Condensed Extra Bold, ';fill:#000000;fill-opacity:1;stroke-width:0.0446776"
                         id="path171"
                         sodipodi:nodetypes="ccccc" /></g></g></g></g><g
                 aria-label="schatten "
                 id="g181"
                 style="font-size:3.88056px;line-height:1.25;font-family:'Berlin Sans FB Demi';-inkscape-font-specification:'Berlin Sans FB Demi';letter-spacing:0px;word-spacing:0px;fill:#000000;fill-opacity:1;stroke:#75b298;stroke-width:0.0446776;stroke-opacity:1"
                 transform="matrix(9.2398641,-4.8763876e-8,3.3472369e-8,9.4558338,-6739.7556,-11972.879)"><path
                   d="m 721.47928,1308.0891 q 0.28233,0.1667 0.40738,0.1667 0.0682,0 0.11369,-0.034 0.0455,-0.036 0.0455,-0.085 0,-0.053 -0.0379,-0.078 -0.0379,-0.025 -0.28422,-0.1327 -0.19706,-0.087 -0.28422,-0.2046 -0.0872,-0.1194 -0.0872,-0.2956 0,-0.252 0.17243,-0.4149 0.17432,-0.163 0.44338,-0.163 0.26148,0 0.64044,0.2084 l -0.21221,0.3923 q -0.24633,-0.1516 -0.4036,-0.1516 -0.13642,0 -0.13642,0.1099 0,0.053 0.0493,0.093 0.0512,0.038 0.1838,0.085 0.24822,0.087 0.36001,0.2084 0.11369,0.1213 0.11369,0.307 0,0.2652 -0.17811,0.4358 -0.17811,0.1705 -0.45476,0.1705 -0.29938,0 -0.64044,-0.2103 z"
                   style="font-family:'Tw Cen MT Condensed Extra Bold';-inkscape-font-specification:'Tw Cen MT Condensed Extra Bold, ';fill:#000000;fill-opacity:1;stroke:#75b298;stroke-width:0.0446776;stroke-opacity:1"
                   id="path174" /><path
                   d="m 723.84589,1308.1194 v 0.4548 q -0.19706,0.1326 -0.39601,0.1326 -0.2937,0 -0.47181,-0.2539 -0.17622,-0.2558 -0.17622,-0.6859 0,-0.4074 0.18191,-0.6632 0.1819,-0.2558 0.46991,-0.2558 0.20085,0 0.39601,0.1421 v 0.451 q -0.11179,-0.059 -0.20085,-0.059 -0.13263,0 -0.21411,0.108 -0.0815,0.1061 -0.0815,0.2843 0,0.1875 0.0796,0.2956 0.0796,0.108 0.21601,0.108 0.0834,0 0.19706,-0.059 z"
                   style="font-family:'Tw Cen MT Condensed Extra Bold';-inkscape-font-specification:'Tw Cen MT Condensed Extra Bold, ';fill:#000000;fill-opacity:1;stroke:#75b298;stroke-width:0.0446776;stroke-opacity:1"
                   id="path175" /><path
                   d="m 724.1699,1305.9821 h 0.5495 v 1.152 h 0.009 q 0.20274,-0.2823 0.46802,-0.2823 0.18948,0 0.29369,0.125 0.10611,0.1232 0.10611,0.3487 v 1.3264 h -0.55139 v -1.063 q 0,-0.1023 -0.0417,-0.1592 -0.0398,-0.059 -0.1118,-0.059 -0.17242,0 -0.17242,0.233 v 1.0479 h -0.5495 z"
                   style="font-family:'Tw Cen MT Condensed Extra Bold';-inkscape-font-specification:'Tw Cen MT Condensed Extra Bold, ';fill:#000000;fill-opacity:1;stroke:#75b298;stroke-width:0.0446776;stroke-opacity:1"
                   id="path176" /><path
                   d="m 726.87,1308.6519 v -0.2293 h -0.008 q -0.10042,0.1478 -0.19516,0.2179 -0.0928,0.07 -0.2198,0.07 -0.24822,0 -0.39602,-0.2539 -0.14779,-0.2539 -0.14779,-0.6897 0,-0.4188 0.14969,-0.667 0.14969,-0.2482 0.39412,-0.2482 0.13074,0 0.22169,0.066 0.091,0.064 0.18948,0.2084 h 0.008 v -0.2179 h 0.55139 v 1.7433 z m 0,-0.8811 q 0,-0.4339 -0.21222,-0.4339 -0.21411,0 -0.21411,0.4339 0,0.4509 0.22169,0.4509 0.20464,0 0.20464,-0.4509 z"
                   style="font-family:'Tw Cen MT Condensed Extra Bold';-inkscape-font-specification:'Tw Cen MT Condensed Extra Bold, ';fill:#000000;fill-opacity:1;stroke:#75b298;stroke-width:0.0446776;stroke-opacity:1"
                   id="path177" /><path
                   d="m 727.90646,1306.4444 h 0.55139 v 0.4642 l 0.36254,-0.01 7e-5,0.4597 h -0.3664 v 1.2847 h -0.5476 v -1.2885 h -0.20843 v -0.4548 h 0.20843 z"
                   style="font-family:'Tw Cen MT Condensed Extra Bold';-inkscape-font-specification:'Tw Cen MT Condensed Extra Bold, ';fill:#000000;fill-opacity:1;stroke:#75b298;stroke-width:0.0446776;stroke-opacity:1"
                   id="path178"
                   sodipodi:nodetypes="ccccccccccccc" /><path
                   d="m 728.82025,1306.444 h 0.55139 v 0.4642 h 0.21411 v 0.4586 h -0.2179 v 1.2847 h -0.5476 v -1.2885 h -0.3664 l 0.004,-0.4544 0.36254,-0.01 z"
                   style="font-family:'Tw Cen MT Condensed Extra Bold';-inkscape-font-specification:'Tw Cen MT Condensed Extra Bold, ';fill:#000000;fill-opacity:1;stroke:#75b298;stroke-width:0.0446776;stroke-opacity:1"
                   id="path179"
                   sodipodi:nodetypes="ccccccccccccc" /><path
                   d="m 730.68495,1308.119 h 0.46423 q -0.13264,0.5874 -0.66318,0.5874 -0.33159,0 -0.52486,-0.252 -0.19327,-0.252 -0.19327,-0.6954 0,-0.4131 0.19327,-0.6613 0.19327,-0.2501 0.51349,-0.2501 0.19327,0 0.37138,0.1213 0.17811,0.1193 0.25959,0.3183 0.0815,0.199 0.0909,0.6272 h -0.91898 q 0.0114,0.3884 0.21601,0.3884 0.0701,0 0.12505,-0.051 0.0549,-0.051 0.0663,-0.1327 z m -0.3998,-0.504 h 0.3998 q -0.006,-0.1838 -0.0512,-0.271 -0.0455,-0.089 -0.144,-0.089 -0.1099,0 -0.15727,0.085 -0.0474,0.085 -0.0474,0.2747 z"
                   style="font-family:'Tw Cen MT Condensed Extra Bold';-inkscape-font-specification:'Tw Cen MT Condensed Extra Bold, ';fill:#000000;fill-opacity:1;stroke:#75b298;stroke-width:0.0446776;stroke-opacity:1"
                   id="path180" /><path
                   d="m 732.06816,1306.9082 v 0.2369 h 0.009 q 0.19327,-0.2937 0.47181,-0.2937 0.1819,0 0.28801,0.1213 0.108,0.1212 0.108,0.3278 v 1.351 h -0.55139 v -1.0744 q 0,-0.089 -0.0417,-0.1459 -0.0417,-0.057 -0.10801,-0.057 -0.17621,0 -0.17621,0.2216 v 1.0555 h -0.5495 v -1.7433 z"
                   style="font-family:'Tw Cen MT Condensed Extra Bold';-inkscape-font-specification:'Tw Cen MT Condensed Extra Bold, ';fill:#000000;fill-opacity:1;stroke:#75b298;stroke-width:0.0446776;stroke-opacity:1"
                   id="path181" /></g><g
                 id="g200"
                 transform="matrix(0.94676332,-0.10440959,0.10434478,0.94735136,-359.34572,188.7349)"
                 inkscape:export-filename="..\website\schattenorigami\assets\logo_60.png"
                 inkscape:export-xdpi="27.721689"
                 inkscape:export-ydpi="27.721689"
                 style="fill:#000000;fill-opacity:1;stroke-width:1.6566"><path
                   style="fill:#000000;fill-opacity:1;stroke:#96f0be;stroke-width:0.165658;stroke-linecap:round;stroke-linejoin:round;stroke-opacity:0.256071;paint-order:stroke markers fill"
                   d="m 249.9401,267.78728 -6.10377,-0.7488 -5.14494,-2.7037 -5.14494,-2.7036 -0.92227,-4.0382 c -0.50725,-2.221 -1.03561,-4.5376 -1.17412,-5.1481 l -0.25184,-1.1099 0.85373,-1.7198 0.85373,-1.7198 1.9443,-1.5664 c 1.06936,-0.8615 1.96348,-1.5728 1.98693,-1.5806 0.0234,-0.01 4.38036,5.3433 9.68202,11.8913 5.30166,6.5481 9.61363,11.9035 9.58216,11.901 -0.0315,0 -2.80392,-0.3415 -6.16099,-0.7534 z"
                   id="path182" /><path
                   style="fill:#000000;fill-opacity:1;stroke:#96f0be;stroke-width:0.165658;stroke-linecap:round;stroke-linejoin:round;stroke-opacity:0.256071;paint-order:stroke markers fill"
                   d="m 247.43779,257.51858 c -4.86197,-6.0054 -9.20229,-11.3674 -9.64517,-11.9154 l -0.80522,-0.9965 1.94802,-1.5796 1.94801,-1.5797 1.8493,-0.4783 1.84929,-0.4783 4.79602,2.2211 4.79602,2.2212 1.57554,5.6205 1.57553,5.6205 -0.50942,5.9634 c -0.28018,3.2799 -0.51585,6.0392 -0.5237,6.1317 -0.0137,0.1618 -0.35604,-0.2538 -8.85422,-10.7506 z"
                   id="path183" /><path
                   style="fill:#000000;fill-opacity:1;stroke:#96f0be;stroke-width:0.165658;stroke-linecap:round;stroke-linejoin:round;stroke-opacity:0.256071;paint-order:stroke markers fill"
                   d="m 246.73581,241.13118 c -0.72008,-0.3336 -1.38975,-0.6425 -1.48817,-0.6864 l -0.17894,-0.08 1.16116,-0.2993 c 0.63863,-0.1646 1.1822,-0.3066 1.20793,-0.3156 0.0424,-0.015 0.65825,1.9366 0.62248,1.9724 -0.008,0.01 -0.60439,-0.2577 -1.32446,-0.5914 z"
                   id="path184" /><path
                   style="fill:#000000;fill-opacity:1;stroke:#96f0be;stroke-width:0.165658;stroke-linecap:round;stroke-linejoin:round;stroke-opacity:0.256071;paint-order:stroke markers fill"
                   d="m 250.80538,243.02058 c -1.26051,-0.5826 -2.29906,-1.0644 -2.3079,-1.0706 -0.009,-0.01 -0.17783,-0.5442 -0.37556,-1.1956 l -0.35951,-1.1845 1.4659,-2.7595 c 0.80624,-1.5178 1.48093,-2.7748 1.49931,-2.7935 0.0184,-0.019 0.39825,0.9242 0.84415,2.0954 l 0.81074,2.1293 0.36809,2.8859 c 0.20244,1.5872 0.36325,2.9008 0.35735,2.9191 -0.006,0.018 -1.04206,-0.4434 -2.30257,-1.026 z"
                   id="path185" /><path
                   style="fill:#000000;fill-opacity:1;stroke:#96f0be;stroke-width:0.165658;stroke-linecap:round;stroke-linejoin:round;stroke-opacity:0.256071;paint-order:stroke markers fill"
                   d="m 253.84865,244.43178 c -0.17838,-0.088 -0.33832,-0.1649 -0.35541,-0.1719 -0.0171,-0.01 -0.20404,-1.3808 -0.41545,-3.0529 l -0.38438,-3.0402 -0.86485,-2.2784 -0.86486,-2.2785 0.3184,-0.3 c 0.17513,-0.1651 1.07612,-1.0098 2.00221,-1.8772 l 1.68379,-1.5771 0.65482,-0.3173 c 0.91468,-0.4433 1.89376,-0.8089 4.68666,-1.7502 1.33249,-0.449 2.46264,-0.832 2.51145,-0.8509 0.0857,-0.033 0.0876,-0.01 0.0546,0.683 -0.0406,0.8536 0.004,0.7641 -0.82916,1.6508 -2.31803,2.4662 -3.87594,4.5647 -5.15228,6.9403 -1.29674,2.4135 -2.21466,5.2064 -2.55658,7.7786 -0.0682,0.5133 -0.0889,0.6088 -0.13046,0.6046 -0.0188,0 -0.18013,-0.075 -0.35851,-0.1627 z"
                   id="path186" /><path
                   style="fill:#000000;fill-opacity:1;stroke:#96f0be;stroke-width:0.165658;stroke-linecap:round;stroke-linejoin:round;stroke-opacity:0.256071;paint-order:stroke markers fill"
                   d="m 254.477,244.83568 c 0,-0.049 -0.0204,-0.097 -0.0454,-0.1052 -0.028,-0.01 -0.0103,-0.2667 0.0462,-0.6704 0.60202,-4.3 2.39336,-8.2917 5.42532,-12.0894 0.79081,-0.9906 2.00122,-2.3648 2.04462,-2.3215 0.0113,0.011 -0.10424,0.2065 -0.25671,0.4337 -0.8966,1.3365 -2.34534,3.721 -3.26324,5.3711 -1.45576,2.617 -2.51759,4.9359 -3.21245,7.0156 -0.2661,0.7964 -0.64481,2.1894 -0.64481,2.3718 0,0.046 -0.021,0.084 -0.0468,0.084 -0.0257,0 -0.0468,-0.04 -0.0468,-0.09 z"
                   id="path187" /><path
                   style="fill:#000000;fill-opacity:1;stroke:#96f0be;stroke-width:0.165658;stroke-linecap:round;stroke-linejoin:round;stroke-opacity:0.256071;paint-order:stroke markers fill"
                   d="m 232.78071,246.97128 c -0.0537,-0.2892 -0.23613,-1.3046 -0.40549,-2.2564 -0.51773,-2.9097 -0.85854,-4.3996 -1.34161,-5.8652 l -0.25101,-0.7616 0.2283,-0.2052 c 0.12556,-0.1129 0.35144,-0.2801 0.50194,-0.3715 l 0.27365,-0.1663 0.55257,0.3323 c 0.70581,0.4243 2.46725,1.2957 3.52261,1.7426 0.45019,0.1907 1.67616,0.6918 2.72439,1.1136 1.04823,0.4218 1.90065,0.7819 1.89427,0.8002 -0.01,0.028 -7.46228,6.077 -7.56643,6.1413 -0.0196,0.012 -0.0795,-0.2146 -0.13319,-0.5038 z"
                   id="path188" /><path
                   style="fill:#000000;fill-opacity:1;stroke:#96f0be;stroke-width:0.165658;stroke-linecap:round;stroke-linejoin:round;stroke-opacity:0.256071;paint-order:stroke markers fill"
                   d="m 237.14791,239.61498 c -0.0772,-0.036 -0.58231,-0.2534 -1.12253,-0.4825 -1.1738,-0.4979 -2.40317,-1.0923 -3.2039,-1.5491 -0.32155,-0.1835 -0.60195,-0.3508 -0.6231,-0.3719 -0.0211,-0.021 0.10514,-0.107 0.28064,-0.191 l 0.31908,-0.1526 0.74835,0.1238 c 1.50329,0.2486 2.41816,0.5045 3.29852,0.9225 l 0.49948,0.2372 -0.005,0.569 c -0.003,0.3129 0.0113,0.6584 0.0309,0.7677 0.0398,0.2222 0.0129,0.2376 -0.22272,0.1269 z"
                   id="path189" /><path
                   style="fill:#000000;fill-opacity:1;stroke:#96f0be;stroke-width:0.165658;stroke-linecap:round;stroke-linejoin:round;stroke-opacity:0.256071;paint-order:stroke markers fill"
                   d="m 238.87848,240.30868 c -0.61739,-0.2473 -1.12579,-0.4515 -1.12978,-0.4538 -0.0365,-0.022 -0.13515,-0.9961 -0.12007,-1.1863 l 0.0196,-0.2465 0.49822,0.4663 c 0.9648,0.903 1.94763,1.8694 1.90138,1.8697 -0.0257,1e-4 -0.55191,-0.2021 -1.1693,-0.4494 z"
                   id="path190" /><path
                   style="fill:#000000;fill-opacity:1;stroke:#96f0be;stroke-width:0.165658;stroke-linecap:round;stroke-linejoin:round;stroke-opacity:0.256071;paint-order:stroke markers fill"
                   d="m 231.51186,243.89618 c -0.19655,-0.072 -0.50868,-0.143 -0.70989,-0.1609 l -0.3591,-0.032 -0.11784,-0.4998 c -0.2312,-0.9809 -0.29251,-1.8085 -0.24078,-3.2503 l 0.0349,-0.973 0.18572,-0.2781 c 0.10215,-0.153 0.20119,-0.2782 0.2201,-0.2782 0.0712,0 0.52505,1.4951 0.79512,2.6194 0.1446,0.602 0.6127,2.8735 0.6127,2.9732 0,0.031 -0.0431,0.019 -0.42095,-0.1204 z"
                   id="path191" /><path
                   style="fill:#000000;fill-opacity:1;stroke:#96f0be;stroke-width:0.165658;stroke-linecap:round;stroke-linejoin:round;stroke-opacity:0.256071;paint-order:stroke markers fill"
                   d="m 231.55744,245.52658 c -0.47525,-0.7725 -0.87188,-1.4261 -0.8814,-1.4524 -0.0303,-0.084 0.45388,0.011 0.89594,0.1755 0.22937,0.085 0.42195,0.1617 0.42796,0.1698 0.0187,0.025 0.4453,2.4879 0.43311,2.5001 -0.006,0.01 -0.40036,-0.6205 -0.87561,-1.393 z"
                   id="path192" /><path
                   style="fill:#000000;fill-opacity:1;stroke:#96f0be;stroke-width:0.165658;stroke-linecap:round;stroke-linejoin:round;stroke-opacity:0.256071;paint-order:stroke markers fill"
                   d="m 230.78689,254.51428 c -0.46304,-0.2561 -0.86001,-0.4723 -0.88215,-0.4804 -0.0222,-0.01 0.20988,-0.5148 0.51562,-1.1258 l 0.55588,-1.111 0.34144,1.5103 c 0.1878,0.8306 0.35183,1.5471 0.36451,1.5921 0.0127,0.045 0.006,0.082 -0.0152,0.081 -0.021,-3e-4 -0.41709,-0.2103 -0.88013,-0.4664 z"
                   id="path193" /><path
                   style="fill:#000000;fill-opacity:1;stroke:#96f0be;stroke-width:0.165658;stroke-linecap:round;stroke-linejoin:round;stroke-opacity:0.256071;paint-order:stroke markers fill"
                   d="m 230.11149,259.44518 -2.73338,-0.9567 -1.31241,-0.8475 c -0.72183,-0.466 -1.58048,-1.0184 -1.90812,-1.2273 -0.32763,-0.209 -0.59599,-0.3913 -0.59634,-0.4052 -2.7e-4,-0.014 1.36574,-0.4156 3.03578,-0.8927 l 3.03642,-0.8673 1.04445,0.5763 c 0.57445,0.317 1.06282,0.5827 1.08527,0.5905 0.0358,0.012 1.14888,4.7828 1.15103,4.9332 5.3e-4,0.032 -0.0149,0.057 -0.0342,0.056 -0.0193,0 -1.2651,-0.4331 -2.76846,-0.9592 z"
                   id="path194" /><path
                   style="fill:#000000;fill-opacity:1;stroke:#96f0be;stroke-width:0.165658;stroke-linecap:round;stroke-linejoin:round;stroke-opacity:0.256071;paint-order:stroke markers fill"
                   d="m 214.66107,266.44768 -0.69102,-0.1708 0.92774,-1.5201 c 1.79197,-2.9362 2.59473,-4.1683 3.25055,-4.989 0.40174,-0.5027 1.66556,-1.5023 2.89682,-2.2911 1.76881,-1.1331 2.0964,-1.3304 2.15269,-1.2963 0.0323,0.02 0.94882,0.6102 2.03672,1.3125 l 1.97799,1.2771 2.88561,1.0072 c 1.58709,0.5539 2.8992,1.0222 2.91581,1.0406 0.0425,0.047 0.19448,0.7612 0.16768,0.788 -0.0121,0.012 -0.51381,0 -1.11486,-0.033 -5.01689,-0.255 -10.00143,1.1732 -15.2414,4.3671 -0.99711,0.6077 -1.1553,0.6891 -1.32924,0.6836 -0.0792,0 -0.45504,-0.081 -0.83509,-0.1754 z"
                   id="path195" /><path
                   style="fill:#000000;fill-opacity:1;stroke:#96f0be;stroke-width:0.165658;stroke-linecap:round;stroke-linejoin:round;stroke-opacity:0.256071;paint-order:stroke markers fill"
                   d="m 216.78253,266.14238 c 0.0107,-0.01 0.32858,-0.1981 0.70637,-0.4187 3.54498,-2.0704 6.912,-3.3182 10.23442,-3.7927 1.30688,-0.1866 1.90498,-0.228 3.27405,-0.2268 1.40264,0 2.25572,0.063 2.36378,0.1712 0.0584,0.058 0.0198,0.071 -0.29471,0.095 -1.55337,0.1197 -2.45445,0.2437 -3.96334,0.5452 -2.90994,0.5816 -7.39018,1.891 -11.29033,3.2998 -0.84972,0.3069 -1.09422,0.3845 -1.03024,0.3269 z"
                   id="path196" /><path
                   style="fill:#000000;fill-opacity:1;stroke:#96f0be;stroke-width:0.165658;stroke-linecap:round;stroke-linejoin:round;stroke-opacity:0.256071;paint-order:stroke markers fill"
                   d="m 244.98458,281.72598 c -0.0247,-0.059 -0.17047,-0.4146 -0.32401,-0.7894 -0.15355,-0.3749 -0.64087,-1.4693 -1.08293,-2.4322 -0.97368,-2.1207 -1.32169,-2.9477 -1.60424,-3.8124 -0.24004,-0.7347 -0.35876,-1.3275 -0.35873,-1.7913 1e-5,-0.2801 0.6315,-6.2662 0.66433,-6.2975 0.008,-0.01 0.32956,0.1543 0.71543,0.3591 l 0.70158,0.3723 3.06358,0.3723 c 1.68497,0.2048 3.10778,0.3821 3.1618,0.394 0.054,0.012 0.22576,0.1759 0.38164,0.3643 l 0.28341,0.3427 -0.71051,0.7223 c -0.39079,0.3973 -0.88292,0.9538 -1.09363,1.2368 -1.80394,2.4226 -2.75143,5.4988 -2.84518,9.2375 -0.0139,0.5531 -0.0339,1.0491 -0.0444,1.1023 -0.0106,0.053 -0.18293,0.2229 -0.38298,0.3771 -0.48464,0.3737 -0.47269,0.3682 -0.52511,0.2421 z"
                   id="path197" /><path
                   style="fill:#000000;fill-opacity:1;stroke:#96f0be;stroke-width:0.165658;stroke-linecap:round;stroke-linejoin:round;stroke-opacity:0.256071;paint-order:stroke markers fill"
                   d="m 246.0812,279.86418 c 0.15174,-4.402 1.4965,-7.8534 4.0408,-10.3708 0.29299,-0.29 0.54939,-0.5271 0.56978,-0.5271 0.0204,0 0.0796,0.06 0.13158,0.1327 l 0.0945,0.1327 -0.10839,0.1596 c -0.64841,0.9547 -2.42537,5.0976 -4.14095,9.6544 -0.6832,1.8146 -0.61856,1.7245 -0.58733,0.8185 z"
                   id="path198" /><path
                   style="fill:#000000;fill-opacity:1;stroke:#96f0be;stroke-width:0.165658;stroke-linecap:round;stroke-linejoin:round;stroke-opacity:0.256071;paint-order:stroke markers fill"
                   d="m 257.85306,263.35498 -0.10267,-0.1388 0.63846,-0.423 c 2.16469,-1.4342 4.57243,-2.1197 7.45381,-2.122 1.1532,-7e-4 1.866,0.053 3.0402,0.2299 0.8589,0.1294 1.1049,0.1988 0.7249,0.2047 -0.5118,0.01 -2.2428,0.2323 -3.8119,0.4942 -2.84913,0.4756 -5.97356,1.2096 -7.36238,1.7298 -0.24097,0.09 -0.44704,0.1641 -0.45794,0.1641 -0.0109,0 -0.066,-0.062 -0.12248,-0.1389 z"
                   id="path199" /><path
                   style="fill:#000000;fill-opacity:1;stroke:#96f0be;stroke-width:0.165658;stroke-linecap:round;stroke-linejoin:round;stroke-opacity:0.256071;paint-order:stroke markers fill"
                   d="m 257.39434,262.78058 c -0.12825,-0.1607 -0.24583,-0.3134 -0.26131,-0.3393 -0.0155,-0.026 0.0924,-1.4676 0.2398,-3.2039 l 0.26793,-3.1569 -0.21895,-0.7717 c -0.2138,-0.7536 -0.21663,-0.7721 -0.12025,-0.7853 0.0543,-0.01 1.45626,0.1252 3.1155,0.2947 2.92952,0.2994 3.03102,0.313 3.50791,0.472 0.96169,0.3206 2.01009,0.9556 3.75849,2.2764 2.0402,1.5412 2.7809,2.0892 3.2896,2.4342 l 0.5234,0.3549 -0.3752,0.353 c -0.2064,0.1942 -0.4104,0.3531 -0.4534,0.3531 -0.043,0 -0.3313,-0.052 -0.6408,-0.1144 -1.449,-0.2946 -2.6921,-0.4182 -4.1844,-0.4164 -1.6456,0 -2.7554,0.1491 -4.14445,0.5489 -1.30037,0.3743 -2.71792,1.0609 -3.74638,1.8146 -0.13396,0.098 -0.26173,0.1785 -0.28394,0.1785 -0.0222,0 -0.1453,-0.1316 -0.27355,-0.2924 z"
                   id="path200" /></g></g><g
               id="g119"
               transform="matrix(9.2398641,-4.8763876e-8,3.3472369e-8,9.4558338,-6558.43,-12269.183)"
               style="fill:#75b298;fill-opacity:1;stroke-width:0.168862"><g
                 aria-label="origami "
                 id="g118"
                 style="font-size:3.88056px;line-height:1.25;font-family:'Berlin Sans FB Demi';-inkscape-font-specification:'Berlin Sans FB Demi';letter-spacing:0px;word-spacing:0px;fill:#75b298;fill-opacity:1;stroke-width:0.0446776"
                 transform="translate(-23.473128,29.794928)"><g
                   id="g117"
                   style="fill:#75b298;fill-opacity:1;stroke-width:0.0446776"><g
                     id="g116"
                     style="fill:#75b298;fill-opacity:1;stroke-width:0.0446776"><path
                       d="m 726.14959,1310.6952 q 0.37706,0 0.57412,0.252 0.19706,0.2501 0.19706,0.6973 0,0.4377 -0.20464,0.6783 -0.20463,0.2388 -0.56654,0.2388 -0.34675,0 -0.55139,-0.2445 -0.20274,-0.2444 -0.20274,-0.6726 0,-0.4472 0.19327,-0.6973 0.19516,-0.252 0.56086,-0.252 z m 0.004,1.3737 q 0.108,0 0.16106,-0.1004 0.055,-0.1004 0.055,-0.343 0,-0.2406 -0.0531,-0.3373 -0.053,-0.097 -0.15916,-0.097 -0.10422,0 -0.15917,0.095 -0.055,0.093 -0.055,0.343 0,0.4396 0.21033,0.4396 z"
                       style="font-family:'Tw Cen MT Condensed Extra Bold';-inkscape-font-specification:'Tw Cen MT Condensed Extra Bold, ';fill:#75b298;fill-opacity:1;stroke-width:0.0446776"
                       id="path110" /><path
                       d="m 727.77154,1310.7558 v 0.2918 h 0.008 q 0.19706,-0.3411 0.41496,-0.3411 0.0322,0 0.0891,0.011 v 0.54 q -0.10043,-0.017 -0.18569,-0.017 -0.30317,0 -0.30317,0.3922 v 0.8659 h -0.54949 v -1.7432 z"
                       style="font-family:'Tw Cen MT Condensed Extra Bold';-inkscape-font-specification:'Tw Cen MT Condensed Extra Bold, ';fill:#75b298;fill-opacity:1;stroke-width:0.0446776"
                       id="path111" /><path
                       d="m 728.59582,1310.7558 h 0.55139 v 1.7432 h -0.55139 z"
                       style="font-family:'Tw Cen MT Condensed Extra Bold';-inkscape-font-specification:'Tw Cen MT Condensed Extra Bold, ';fill:#75b298;fill-opacity:1;stroke-width:0.0446776"
                       id="path112"
                       sodipodi:nodetypes="ccccc" /><path
                       d="m 730.45648,1312.5066 v -0.2482 q -0.16106,0.2368 -0.38275,0.2368 -0.28043,0 -0.43581,-0.233 -0.15537,-0.235 -0.15537,-0.6632 0,-0.4188 0.15158,-0.6575 0.15159,-0.2388 0.41497,-0.2388 0.23495,0 0.39601,0.2369 h 0.008 v -0.1838 h 0.55139 v 1.6144 q 0,0.2217 -0.0796,0.4206 -0.0777,0.199 -0.27665,0.3127 -0.19895,0.1137 -0.4358,0.1137 -0.23685,0 -0.44528,-0.127 -0.20843,-0.1269 -0.27096,-0.4244 h 0.49265 q 0.0853,0.1326 0.21222,0.1326 0.108,0 0.1819,-0.085 0.0739,-0.083 0.0739,-0.2065 z m 0,-0.9152 q 0,-0.4225 -0.21222,-0.4225 -0.10421,0 -0.16485,0.1023 -0.0606,0.1023 -0.0606,0.2842 0,0.4775 0.22169,0.4775 0.21601,0 0.21601,-0.4415 z"
                       style="font-family:'Tw Cen MT Condensed Extra Bold';-inkscape-font-specification:'Tw Cen MT Condensed Extra Bold, ';fill:#75b298;fill-opacity:1;stroke-width:0.0446776"
                       id="path113" /><path
                       d="m 732.29254,1312.499 v -0.2292 h -0.008 q -0.10043,0.1477 -0.19517,0.2179 -0.0928,0.07 -0.2198,0.07 -0.24822,0 -0.39601,-0.2539 -0.1478,-0.2539 -0.1478,-0.6898 0,-0.4187 0.14969,-0.6669 0.14969,-0.2482 0.39412,-0.2482 0.13074,0 0.2217,0.066 0.0909,0.064 0.18948,0.2084 h 0.008 v -0.2179 h 0.55138 v 1.7432 z m 0,-0.8811 q 0,-0.4339 -0.21221,-0.4339 -0.21412,0 -0.21412,0.4339 0,0.451 0.2217,0.451 0.20463,0 0.20463,-0.451 z"
                       style="font-family:'Tw Cen MT Condensed Extra Bold';-inkscape-font-specification:'Tw Cen MT Condensed Extra Bold, ';fill:#75b298;fill-opacity:1;stroke-width:0.0446776"
                       id="path114" /><path
                       d="m 733.81028,1310.7558 v 0.2141 q 0.23496,-0.2747 0.47749,-0.2747 0.2918,0 0.37707,0.3012 0.13264,-0.1572 0.24632,-0.2292 0.11559,-0.072 0.26907,-0.072 0.38464,0 0.38464,0.5381 v 1.2657 h -0.55139 v -1.0289 q 0,-0.252 -0.16295,-0.252 -0.16674,0 -0.16674,0.2483 v 1.0326 h -0.55139 v -1.0592 q 0,-0.097 -0.0455,-0.1591 -0.0436,-0.063 -0.11368,-0.063 -0.0739,0 -0.11938,0.061 -0.0436,0.061 -0.0436,0.1648 v 1.0554 h -0.54949 v -1.7432 z"
                       style="font-family:'Tw Cen MT Condensed Extra Bold';-inkscape-font-specification:'Tw Cen MT Condensed Extra Bold, ';fill:#75b298;fill-opacity:1;stroke-width:0.0446776"
                       id="path115" /><path
                       d="m 735.98556,1310.7558 h 0.55139 v 1.7432 h -0.55139 z"
                       style="font-family:'Tw Cen MT Condensed Extra Bold';-inkscape-font-specification:'Tw Cen MT Condensed Extra Bold, ';fill:#75b298;fill-opacity:1;stroke-width:0.0446776"
                       id="path116"
                       sodipodi:nodetypes="ccccc" /></g></g></g></g><path
               d="m 721.47928,1308.0891 q 0.28233,0.1667 0.40738,0.1667 0.0682,0 0.11369,-0.034 0.0455,-0.036 0.0455,-0.085 0,-0.053 -0.0379,-0.078 -0.0379,-0.025 -0.28422,-0.1327 -0.19706,-0.087 -0.28422,-0.2046 -0.0872,-0.1194 -0.0872,-0.2956 0,-0.252 0.17243,-0.4149 0.17432,-0.163 0.44338,-0.163 0.26148,0 0.64044,0.2084 l -0.21221,0.3923 q -0.24633,-0.1516 -0.4036,-0.1516 -0.13642,0 -0.13642,0.1099 0,0.053 0.0493,0.093 0.0512,0.038 0.1838,0.085 0.24822,0.087 0.36001,0.2084 0.11369,0.1213 0.11369,0.307 0,0.2652 -0.17811,0.4358 -0.17811,0.1705 -0.45476,0.1705 -0.29938,0 -0.64044,-0.2103 z"
               style="font-size:3.88056px;line-height:1.25;font-family:'Tw Cen MT Condensed Extra Bold';-inkscape-font-specification:'Tw Cen MT Condensed Extra Bold, ';letter-spacing:0px;word-spacing:0px;fill:#4d4d4d;fill-opacity:1;stroke:#75b298;stroke-width:0.0446776;stroke-opacity:1"
               id="path119"
               transform="matrix(9.239864,-4.8763874e-8,3.3472369e-8,9.4558336,-6739.7557,-11972.879)" /><path
               d="m 723.84589,1308.1194 v 0.4548 q -0.19706,0.1326 -0.39601,0.1326 -0.2937,0 -0.47181,-0.2539 -0.17622,-0.2558 -0.17622,-0.6859 0,-0.4074 0.18191,-0.6632 0.1819,-0.2558 0.46991,-0.2558 0.20085,0 0.39601,0.1421 v 0.451 q -0.11179,-0.059 -0.20085,-0.059 -0.13263,0 -0.21411,0.108 -0.0815,0.1061 -0.0815,0.2843 0,0.1875 0.0796,0.2956 0.0796,0.108 0.21601,0.108 0.0834,0 0.19706,-0.059 z"
               style="font-size:3.88056px;line-height:1.25;font-family:'Tw Cen MT Condensed Extra Bold';-inkscape-font-specification:'Tw Cen MT Condensed Extra Bold, ';letter-spacing:0px;word-spacing:0px;fill:#4d4d4d;fill-opacity:1;stroke:#75b298;stroke-width:0.0446776;stroke-opacity:1"
               id="path120"
               transform="matrix(9.239864,-4.8763874e-8,3.3472369e-8,9.4558336,-6739.7557,-11972.879)" /><path
               d="m 724.1699,1305.9821 h 0.5495 v 1.152 h 0.009 q 0.20274,-0.2823 0.46802,-0.2823 0.18948,0 0.29369,0.125 0.10611,0.1232 0.10611,0.3487 v 1.3264 h -0.55139 v -1.063 q 0,-0.1023 -0.0417,-0.1592 -0.0398,-0.059 -0.1118,-0.059 -0.17242,0 -0.17242,0.233 v 1.0479 h -0.5495 z"
               style="font-size:3.88056px;line-height:1.25;font-family:'Tw Cen MT Condensed Extra Bold';-inkscape-font-specification:'Tw Cen MT Condensed Extra Bold, ';letter-spacing:0px;word-spacing:0px;fill:#4d4d4d;fill-opacity:1;stroke:#75b298;stroke-width:0.0446776;stroke-opacity:1"
               id="path121"
               transform="matrix(9.239864,-4.8763874e-8,3.3472369e-8,9.4558336,-6739.7557,-11972.879)" /><path
               d="m 726.87,1308.6519 v -0.2293 h -0.008 q -0.10042,0.1478 -0.19516,0.2179 -0.0928,0.07 -0.2198,0.07 -0.24822,0 -0.39602,-0.2539 -0.14779,-0.2539 -0.14779,-0.6897 0,-0.4188 0.14969,-0.667 0.14969,-0.2482 0.39412,-0.2482 0.13074,0 0.22169,0.066 0.091,0.064 0.18948,0.2084 h 0.008 v -0.2179 h 0.55139 v 1.7433 z m 0,-0.8811 q 0,-0.4339 -0.21222,-0.4339 -0.21411,0 -0.21411,0.4339 0,0.4509 0.22169,0.4509 0.20464,0 0.20464,-0.4509 z"
               style="font-size:3.88056px;line-height:1.25;font-family:'Tw Cen MT Condensed Extra Bold';-inkscape-font-specification:'Tw Cen MT Condensed Extra Bold, ';letter-spacing:0px;word-spacing:0px;fill:#4d4d4d;fill-opacity:1;stroke:#75b298;stroke-width:0.0446776;stroke-opacity:1"
               id="path122"
               transform="matrix(9.239864,-4.8763874e-8,3.3472369e-8,9.4558336,-6739.7557,-11972.879)" /><g
               id="g205"
               style="font-size:3.88056px;line-height:1.25;font-family:'Berlin Sans FB Demi';-inkscape-font-specification:'Berlin Sans FB Demi';letter-spacing:0px;word-spacing:0px;fill:#4d4d4d;fill-opacity:1;stroke:#75b298;stroke-width:0.0446776;stroke-opacity:1"
               transform="matrix(9.239864,-4.8763874e-8,3.3472369e-8,9.4558336,-6739.7557,-11972.879)"><path
                 d="m 727.90646,1306.4444 h 0.55139 v 0.4642 l 0.36254,-0.01 7e-5,0.4597 h -0.3664 v 1.2847 h -0.5476 v -1.2885 h -0.20843 v -0.4548 h 0.20843 z"
                 style="font-family:'Tw Cen MT Condensed Extra Bold';-inkscape-font-specification:'Tw Cen MT Condensed Extra Bold, ';fill:#4d4d4d;fill-opacity:1;stroke:#75b298;stroke-width:0.0446776;stroke-opacity:1"
                 id="path123"
                 sodipodi:nodetypes="ccccccccccccc" /><path
                 d="m 728.82025,1306.444 h 0.55139 v 0.4642 h 0.21411 v 0.4586 h -0.2179 v 1.2847 h -0.5476 v -1.2885 h -0.3664 l 0.004,-0.4544 0.36254,-0.01 z"
                 style="font-family:'Tw Cen MT Condensed Extra Bold';-inkscape-font-specification:'Tw Cen MT Condensed Extra Bold, ';fill:#4d4d4d;fill-opacity:1;stroke:#75b298;stroke-width:0.0446776;stroke-opacity:1"
                 id="path124"
                 sodipodi:nodetypes="ccccccccccccc" /></g><path
               d="m 730.68495,1308.119 h 0.46423 q -0.13264,0.5874 -0.66318,0.5874 -0.33159,0 -0.52486,-0.252 -0.19327,-0.252 -0.19327,-0.6954 0,-0.4131 0.19327,-0.6613 0.19327,-0.2501 0.51349,-0.2501 0.19327,0 0.37138,0.1213 0.17811,0.1193 0.25959,0.3183 0.0815,0.199 0.0909,0.6272 h -0.91898 q 0.0114,0.3884 0.21601,0.3884 0.0701,0 0.12505,-0.051 0.0549,-0.051 0.0663,-0.1327 z m -0.3998,-0.504 h 0.3998 q -0.006,-0.1838 -0.0512,-0.271 -0.0455,-0.089 -0.144,-0.089 -0.1099,0 -0.15727,0.085 -0.0474,0.085 -0.0474,0.2747 z"
               style="font-size:3.88056px;line-height:1.25;font-family:'Tw Cen MT Condensed Extra Bold';-inkscape-font-specification:'Tw Cen MT Condensed Extra Bold, ';letter-spacing:0px;word-spacing:0px;fill:#4d4d4d;fill-opacity:1;stroke:#75b298;stroke-width:0.0446776;stroke-opacity:1"
               id="path125"
               transform="matrix(9.239864,-4.8763874e-8,3.3472369e-8,9.4558336,-6739.7557,-11972.879)" /><path
               d="m 732.06816,1306.9082 v 0.2369 h 0.009 q 0.19327,-0.2937 0.47181,-0.2937 0.1819,0 0.28801,0.1213 0.108,0.1212 0.108,0.3278 v 1.351 h -0.55139 v -1.0744 q 0,-0.089 -0.0417,-0.1459 -0.0417,-0.057 -0.10801,-0.057 -0.17621,0 -0.17621,0.2216 v 1.0555 h -0.5495 v -1.7433 z"
               style="font-size:3.88056px;line-height:1.25;font-family:'Tw Cen MT Condensed Extra Bold';-inkscape-font-specification:'Tw Cen MT Condensed Extra Bold, ';letter-spacing:0px;word-spacing:0px;fill:#4d4d4d;fill-opacity:1;stroke:#75b298;stroke-width:0.0446776;stroke-opacity:1"
               id="path126"
               transform="matrix(9.239864,-4.8763874e-8,3.3472369e-8,9.4558336,-6739.7557,-11972.879)" /><path
               style="font-size:3.88056px;line-height:1.25;font-family:'Berlin Sans FB Demi';-inkscape-font-specification:'Berlin Sans FB Demi';letter-spacing:0px;word-spacing:0px;fill:#4d4d4d;fill-opacity:1;stroke:none;stroke-width:0.0446779px;stroke-linecap:butt;stroke-linejoin:miter;stroke-opacity:1"
               d="m 728.4255,1306.9309 0.0612,-9e-4 0.04,0.4104 h -0.13279 z"
               id="path205"
               sodipodi:nodetypes="ccccc"
               transform="matrix(9.239864,-4.8763874e-8,3.3472369e-8,9.4558336,-6739.7557,-11972.879)" /><g
               id="g163"
               transform="matrix(0.94676332,-0.10440959,0.10434478,0.94735136,-359.34572,188.7349)"
               inkscape:export-filename="..\website\schattenorigami\assets\logo_60.png"
               inkscape:export-xdpi="27.721689"
               inkscape:export-ydpi="27.721689"
               style="stroke-width:1.6566"><path
                 style="fill:#7dbfa4;fill-opacity:1;stroke:#96f0be;stroke-width:0.165658;stroke-linecap:round;stroke-linejoin:round;stroke-opacity:0.256071;paint-order:stroke markers fill"
                 d="m 249.9401,267.78728 -6.10377,-0.7488 -5.14494,-2.7037 -5.14494,-2.7036 -0.92227,-4.0382 c -0.50725,-2.221 -1.03561,-4.5376 -1.17412,-5.1481 l -0.25184,-1.1099 0.85373,-1.7198 0.85373,-1.7198 1.9443,-1.5664 c 1.06936,-0.8615 1.96348,-1.5728 1.98693,-1.5806 0.0234,-0.01 4.38036,5.3433 9.68202,11.8913 5.30166,6.5481 9.61363,11.9035 9.58216,11.901 -0.0315,0 -2.80392,-0.3415 -6.16099,-0.7534 z"
                 id="path128" /><path
                 style="fill:#81cca2;fill-opacity:1;stroke:#96f0be;stroke-width:0.165658;stroke-linecap:round;stroke-linejoin:round;stroke-opacity:0.256071;paint-order:stroke markers fill"
                 d="m 247.43779,257.51858 c -4.86197,-6.0054 -9.20229,-11.3674 -9.64517,-11.9154 l -0.80522,-0.9965 1.94802,-1.5796 1.94801,-1.5797 1.8493,-0.4783 1.84929,-0.4783 4.79602,2.2211 4.79602,2.2212 1.57554,5.6205 1.57553,5.6205 -0.50942,5.9634 c -0.28018,3.2799 -0.51585,6.0392 -0.5237,6.1317 -0.0137,0.1618 -0.35604,-0.2538 -8.85422,-10.7506 z"
                 id="path129" /><path
                 style="fill:#7dbfa4;fill-opacity:1;stroke:#96f0be;stroke-width:0.165658;stroke-linecap:round;stroke-linejoin:round;stroke-opacity:0.256071;paint-order:stroke markers fill"
                 d="m 246.73581,241.13118 c -0.72008,-0.3336 -1.38975,-0.6425 -1.48817,-0.6864 l -0.17894,-0.08 1.16116,-0.2993 c 0.63863,-0.1646 1.1822,-0.3066 1.20793,-0.3156 0.0424,-0.015 0.65825,1.9366 0.62248,1.9724 -0.008,0.01 -0.60439,-0.2577 -1.32446,-0.5914 z"
                 id="path130" /><path
                 style="fill:#88d9ab;fill-opacity:1;stroke:#96f0be;stroke-width:0.165658;stroke-linecap:round;stroke-linejoin:round;stroke-opacity:0.256071;paint-order:stroke markers fill"
                 d="m 250.80538,243.02058 c -1.26051,-0.5826 -2.29906,-1.0644 -2.3079,-1.0706 -0.009,-0.01 -0.17783,-0.5442 -0.37556,-1.1956 l -0.35951,-1.1845 1.4659,-2.7595 c 0.80624,-1.5178 1.48093,-2.7748 1.49931,-2.7935 0.0184,-0.019 0.39825,0.9242 0.84415,2.0954 l 0.81074,2.1293 0.36809,2.8859 c 0.20244,1.5872 0.36325,2.9008 0.35735,2.9191 -0.006,0.018 -1.04206,-0.4434 -2.30257,-1.026 z"
                 id="path131" /><path
                 style="fill:#7dbfa4;fill-opacity:1;stroke:#96f0be;stroke-width:0.165658;stroke-linecap:round;stroke-linejoin:round;stroke-opacity:0.256071;paint-order:stroke markers fill"
                 d="m 253.84865,244.43178 c -0.17838,-0.088 -0.33832,-0.1649 -0.35541,-0.1719 -0.0171,-0.01 -0.20404,-1.3808 -0.41545,-3.0529 l -0.38438,-3.0402 -0.86485,-2.2784 -0.86486,-2.2785 0.3184,-0.3 c 0.17513,-0.1651 1.07612,-1.0098 2.00221,-1.8772 l 1.68379,-1.5771 0.65482,-0.3173 c 0.91468,-0.4433 1.89376,-0.8089 4.68666,-1.7502 1.33249,-0.449 2.46264,-0.832 2.51145,-0.8509 0.0857,-0.033 0.0876,-0.01 0.0546,0.683 -0.0406,0.8536 0.004,0.7641 -0.82916,1.6508 -2.31803,2.4662 -3.87594,4.5647 -5.15228,6.9403 -1.29674,2.4135 -2.21466,5.2064 -2.55658,7.7786 -0.0682,0.5133 -0.0889,0.6088 -0.13046,0.6046 -0.0188,0 -0.18013,-0.075 -0.35851,-0.1627 z"
                 id="path132" /><path
                 style="fill:#81cca2;fill-opacity:1;stroke:#96f0be;stroke-width:0.165658;stroke-linecap:round;stroke-linejoin:round;stroke-opacity:0.256071;paint-order:stroke markers fill"
                 d="m 254.477,244.83568 c 0,-0.049 -0.0204,-0.097 -0.0454,-0.1052 -0.028,-0.01 -0.0103,-0.2667 0.0462,-0.6704 0.60202,-4.3 2.39336,-8.2917 5.42532,-12.0894 0.79081,-0.9906 2.00122,-2.3648 2.04462,-2.3215 0.0113,0.011 -0.10424,0.2065 -0.25671,0.4337 -0.8966,1.3365 -2.34534,3.721 -3.26324,5.3711 -1.45576,2.617 -2.51759,4.9359 -3.21245,7.0156 -0.2661,0.7964 -0.64481,2.1894 -0.64481,2.3718 0,0.046 -0.021,0.084 -0.0468,0.084 -0.0257,0 -0.0468,-0.04 -0.0468,-0.09 z"
                 id="path133" /><path
                 style="fill:#75b298;fill-opacity:1;stroke:#96f0be;stroke-width:0.165658;stroke-linecap:round;stroke-linejoin:round;stroke-opacity:0.256071;paint-order:stroke markers fill"
                 d="m 232.78071,246.97128 c -0.0537,-0.2892 -0.23613,-1.3046 -0.40549,-2.2564 -0.51773,-2.9097 -0.85854,-4.3996 -1.34161,-5.8652 l -0.25101,-0.7616 0.2283,-0.2052 c 0.12556,-0.1129 0.35144,-0.2801 0.50194,-0.3715 l 0.27365,-0.1663 0.55257,0.3323 c 0.70581,0.4243 2.46725,1.2957 3.52261,1.7426 0.45019,0.1907 1.67616,0.6918 2.72439,1.1136 1.04823,0.4218 1.90065,0.7819 1.89427,0.8002 -0.01,0.028 -7.46228,6.077 -7.56643,6.1413 -0.0196,0.012 -0.0795,-0.2146 -0.13319,-0.5038 z"
                 id="path134" /><path
                 style="fill:#81cca2;fill-opacity:1;stroke:#96f0be;stroke-width:0.165658;stroke-linecap:round;stroke-linejoin:round;stroke-opacity:0.256071;paint-order:stroke markers fill"
                 d="m 237.14791,239.61498 c -0.0772,-0.036 -0.58231,-0.2534 -1.12253,-0.4825 -1.1738,-0.4979 -2.40317,-1.0923 -3.2039,-1.5491 -0.32155,-0.1835 -0.60195,-0.3508 -0.6231,-0.3719 -0.0211,-0.021 0.10514,-0.107 0.28064,-0.191 l 0.31908,-0.1526 0.74835,0.1238 c 1.50329,0.2486 2.41816,0.5045 3.29852,0.9225 l 0.49948,0.2372 -0.005,0.569 c -0.003,0.3129 0.0113,0.6584 0.0309,0.7677 0.0398,0.2222 0.0129,0.2376 -0.22272,0.1269 z"
                 id="path135" /><path
                 style="fill:#88d9ab;fill-opacity:1;stroke:#96f0be;stroke-width:0.165658;stroke-linecap:round;stroke-linejoin:round;stroke-opacity:0.256071;paint-order:stroke markers fill"
                 d="m 238.87848,240.30868 c -0.61739,-0.2473 -1.12579,-0.4515 -1.12978,-0.4538 -0.0365,-0.022 -0.13515,-0.9961 -0.12007,-1.1863 l 0.0196,-0.2465 0.49822,0.4663 c 0.9648,0.903 1.94763,1.8694 1.90138,1.8697 -0.0257,1e-4 -0.55191,-0.2021 -1.1693,-0.4494 z"
                 id="path136" /><path
                 style="fill:#7dbfa4;fill-opacity:1;stroke:#96f0be;stroke-width:0.165658;stroke-linecap:round;stroke-linejoin:round;stroke-opacity:0.256071;paint-order:stroke markers fill"
                 d="m 231.51186,243.89618 c -0.19655,-0.072 -0.50868,-0.143 -0.70989,-0.1609 l -0.3591,-0.032 -0.11784,-0.4998 c -0.2312,-0.9809 -0.29251,-1.8085 -0.24078,-3.2503 l 0.0349,-0.973 0.18572,-0.2781 c 0.10215,-0.153 0.20119,-0.2782 0.2201,-0.2782 0.0712,0 0.52505,1.4951 0.79512,2.6194 0.1446,0.602 0.6127,2.8735 0.6127,2.9732 0,0.031 -0.0431,0.019 -0.42095,-0.1204 z"
                 id="path137" /><path
                 style="fill:#75b298;fill-opacity:1;stroke:#96f0be;stroke-width:0.165658;stroke-linecap:round;stroke-linejoin:round;stroke-opacity:0.256071;paint-order:stroke markers fill"
                 d="m 231.55744,245.52658 c -0.47525,-0.7725 -0.87188,-1.4261 -0.8814,-1.4524 -0.0303,-0.084 0.45388,0.011 0.89594,0.1755 0.22937,0.085 0.42195,0.1617 0.42796,0.1698 0.0187,0.025 0.4453,2.4879 0.43311,2.5001 -0.006,0.01 -0.40036,-0.6205 -0.87561,-1.393 z"
                 id="path138" /><path
                 style="fill:#75b298;fill-opacity:1;stroke:#96f0be;stroke-width:0.165658;stroke-linecap:round;stroke-linejoin:round;stroke-opacity:0.256071;paint-order:stroke markers fill"
                 d="m 230.78689,254.51428 c -0.46304,-0.2561 -0.86001,-0.4723 -0.88215,-0.4804 -0.0222,-0.01 0.20988,-0.5148 0.51562,-1.1258 l 0.55588,-1.111 0.34144,1.5103 c 0.1878,0.8306 0.35183,1.5471 0.36451,1.5921 0.0127,0.045 0.006,0.082 -0.0152,0.081 -0.021,-3e-4 -0.41709,-0.2103 -0.88013,-0.4664 z"
                 id="path139" /><path
                 style="fill:#81cca2;fill-opacity:1;stroke:#96f0be;stroke-width:0.165658;stroke-linecap:round;stroke-linejoin:round;stroke-opacity:0.256071;paint-order:stroke markers fill"
                 d="m 230.11149,259.44518 -2.73338,-0.9567 -1.31241,-0.8475 c -0.72183,-0.466 -1.58048,-1.0184 -1.90812,-1.2273 -0.32763,-0.209 -0.59599,-0.3913 -0.59634,-0.4052 -2.7e-4,-0.014 1.36574,-0.4156 3.03578,-0.8927 l 3.03642,-0.8673 1.04445,0.5763 c 0.57445,0.317 1.06282,0.5827 1.08527,0.5905 0.0358,0.012 1.14888,4.7828 1.15103,4.9332 5.3e-4,0.032 -0.0149,0.057 -0.0342,0.056 -0.0193,0 -1.2651,-0.4331 -2.76846,-0.9592 z"
                 id="path140" /><path
                 style="fill:#75b298;fill-opacity:1;stroke:#96f0be;stroke-width:0.165658;stroke-linecap:round;stroke-linejoin:round;stroke-opacity:0.256071;paint-order:stroke markers fill"
                 d="m 214.66107,266.44768 -0.69102,-0.1708 0.92774,-1.5201 c 1.79197,-2.9362 2.59473,-4.1683 3.25055,-4.989 0.40174,-0.5027 1.66556,-1.5023 2.89682,-2.2911 1.76881,-1.1331 2.0964,-1.3304 2.15269,-1.2963 0.0323,0.02 0.94882,0.6102 2.03672,1.3125 l 1.97799,1.2771 2.88561,1.0072 c 1.58709,0.5539 2.8992,1.0222 2.91581,1.0406 0.0425,0.047 0.19448,0.7612 0.16768,0.788 -0.0121,0.012 -0.51381,0 -1.11486,-0.033 -5.01689,-0.255 -10.00143,1.1732 -15.2414,4.3671 -0.99711,0.6077 -1.1553,0.6891 -1.32924,0.6836 -0.0792,0 -0.45504,-0.081 -0.83509,-0.1754 z"
                 id="path141" /><path
                 style="fill:#7dbfa4;fill-opacity:1;stroke:#96f0be;stroke-width:0.165658;stroke-linecap:round;stroke-linejoin:round;stroke-opacity:0.256071;paint-order:stroke markers fill"
                 d="m 216.78253,266.14238 c 0.0107,-0.01 0.32858,-0.1981 0.70637,-0.4187 3.54498,-2.0704 6.912,-3.3182 10.23442,-3.7927 1.30688,-0.1866 1.90498,-0.228 3.27405,-0.2268 1.40264,0 2.25572,0.063 2.36378,0.1712 0.0584,0.058 0.0198,0.071 -0.29471,0.095 -1.55337,0.1197 -2.45445,0.2437 -3.96334,0.5452 -2.90994,0.5816 -7.39018,1.891 -11.29033,3.2998 -0.84972,0.3069 -1.09422,0.3845 -1.03024,0.3269 z"
                 id="path159" /><path
                 style="fill:#75b298;fill-opacity:1;stroke:#96f0be;stroke-width:0.165658;stroke-linecap:round;stroke-linejoin:round;stroke-opacity:0.256071;paint-order:stroke markers fill"
                 d="m 244.98458,281.72598 c -0.0247,-0.059 -0.17047,-0.4146 -0.32401,-0.7894 -0.15355,-0.3749 -0.64087,-1.4693 -1.08293,-2.4322 -0.97368,-2.1207 -1.32169,-2.9477 -1.60424,-3.8124 -0.24004,-0.7347 -0.35876,-1.3275 -0.35873,-1.7913 1e-5,-0.2801 0.6315,-6.2662 0.66433,-6.2975 0.008,-0.01 0.32956,0.1543 0.71543,0.3591 l 0.70158,0.3723 3.06358,0.3723 c 1.68497,0.2048 3.10778,0.3821 3.1618,0.394 0.054,0.012 0.22576,0.1759 0.38164,0.3643 l 0.28341,0.3427 -0.71051,0.7223 c -0.39079,0.3973 -0.88292,0.9538 -1.09363,1.2368 -1.80394,2.4226 -2.75143,5.4988 -2.84518,9.2375 -0.0139,0.5531 -0.0339,1.0491 -0.0444,1.1023 -0.0106,0.053 -0.18293,0.2229 -0.38298,0.3771 -0.48464,0.3737 -0.47269,0.3682 -0.52511,0.2421 z"
                 id="path160" /><path
                 style="fill:#7dbfa4;fill-opacity:1;stroke:#96f0be;stroke-width:0.165658;stroke-linecap:round;stroke-linejoin:round;stroke-opacity:0.256071;paint-order:stroke markers fill"
                 d="m 246.0812,279.86418 c 0.15174,-4.402 1.4965,-7.8534 4.0408,-10.3708 0.29299,-0.29 0.54939,-0.5271 0.56978,-0.5271 0.0204,0 0.0796,0.06 0.13158,0.1327 l 0.0945,0.1327 -0.10839,0.1596 c -0.64841,0.9547 -2.42537,5.0976 -4.14095,9.6544 -0.6832,1.8146 -0.61856,1.7245 -0.58733,0.8185 z"
                 id="path161" /><path
                 style="fill:#81cca2;fill-opacity:1;stroke:#96f0be;stroke-width:0.165658;stroke-linecap:round;stroke-linejoin:round;stroke-opacity:0.256071;paint-order:stroke markers fill"
                 d="m 257.85306,263.35498 -0.10267,-0.1388 0.63846,-0.423 c 2.16469,-1.4342 4.57243,-2.1197 7.45381,-2.122 1.1532,-7e-4 1.866,0.053 3.0402,0.2299 0.8589,0.1294 1.1049,0.1988 0.7249,0.2047 -0.5118,0.01 -2.2428,0.2323 -3.8119,0.4942 -2.84913,0.4756 -5.97356,1.2096 -7.36238,1.7298 -0.24097,0.09 -0.44704,0.1641 -0.45794,0.1641 -0.0109,0 -0.066,-0.062 -0.12248,-0.1389 z"
                 id="path162" /><path
                 style="fill:#7dbfa4;fill-opacity:1;stroke:#96f0be;stroke-width:0.165658;stroke-linecap:round;stroke-linejoin:round;stroke-opacity:0.256071;paint-order:stroke markers fill"
                 d="m 257.39434,262.78058 c -0.12825,-0.1607 -0.24583,-0.3134 -0.26131,-0.3393 -0.0155,-0.026 0.0924,-1.4676 0.2398,-3.2039 l 0.26793,-3.1569 -0.21895,-0.7717 c -0.2138,-0.7536 -0.21663,-0.7721 -0.12025,-0.7853 0.0543,-0.01 1.45626,0.1252 3.1155,0.2947 2.92952,0.2994 3.03102,0.313 3.50791,0.472 0.96169,0.3206 2.01009,0.9556 3.75849,2.2764 2.0402,1.5412 2.7809,2.0892 3.2896,2.4342 l 0.5234,0.3549 -0.3752,0.353 c -0.2064,0.1942 -0.4104,0.3531 -0.4534,0.3531 -0.043,0 -0.3313,-0.052 -0.6408,-0.1144 -1.449,-0.2946 -2.6921,-0.4182 -4.1844,-0.4164 -1.6456,0 -2.7554,0.1491 -4.14445,0.5489 -1.30037,0.3743 -2.71792,1.0609 -3.74638,1.8146 -0.13396,0.098 -0.26173,0.1785 -0.28394,0.1785 -0.0222,0 -0.1453,-0.1316 -0.27355,-0.2924 z"
                 id="path163" /></g></g></g></g></g></g></svg>
