<?xml version="1.0" encoding="UTF-8" standalone="no"?>
<svg
   width="350"
   height="340"
   viewBox="0 0 350 340"
   version="1.1"
   id="svg6"
   sodipodi:docname="strokes.svg"
   inkscape:version="1.3 (0e150ed6c4, 2023-07-21)"
   xmlns:inkscape="http://www.inkscape.org/namespaces/inkscape"
   xmlns:sodipodi="http://sodipodi.sourceforge.net/DTD/sodipodi-0.dtd"
   xmlns="http://www.w3.org/2000/svg"
   xmlns:svg="http://www.w3.org/2000/svg">
  <defs
     id="defs6" />
  <sodipodi:namedview
     id="namedview6"
     pagecolor="#ffffff"
     bordercolor="#666666"
     borderopacity="1.0"
     inkscape:showpageshadow="2"
     inkscape:pageopacity="0.0"
     inkscape:pagecheckerboard="0"
     inkscape:deskcolor="#d1d1d1"
     inkscape:zoom="1.7632353"
     inkscape:cx="221.75146"
     inkscape:cy="144.33695"
     inkscape:window-width="2560"
     inkscape:window-height="1377"
     inkscape:window-x="1912"
     inkscape:window-y="-8"
     inkscape:window-maximized="1"
     inkscape:current-layer="svg6" />
  <polygon
     points="92.4,273.5 64,322 171,322 142.6,273.5 "
     fill="none"
     stroke="#000000"
     stroke-linecap="round"
     stroke-linejoin="round"
     stroke-width="2"
     id="polygon1"
     transform="translate(4,551.25938)" />
  <rect
     x="106"
     y="814.2594"
     width="31"
     height="10"
     fill="none"
     stroke="#000000"
     stroke-width="2"
     id="rect1" />
  <rect
     x="45"
     y="799.2594"
     width="102"
     height="15"
     fill="none"
     stroke="#000000"
     stroke-width="2"
     id="rect2" />
  <polyline
     points="186.8 200.4 277.9 25.7 296.8 12.3"
     fill="none"
     stroke="#000000"
     stroke-width="2"
     id="polyline2"
     transform="translate(4,551.25938)" />
  <polyline
     points="89.1 190.6 257 1.5 296.8 12.3 336.9 89"
     fill="none"
     stroke="#000000"
     stroke-width="2"
     id="polyline3"
     transform="translate(4,551.25938)" />
  <circle
     cx="342.39999"
     cy="646.05939"
     r="5.3000002"
     fill="none"
     stroke="#000000"
     stroke-linecap="round"
     stroke-linejoin="round"
     stroke-width="2"
     id="circle3" />
  <line
     x1="342.39999"
     y1="758.65936"
     x2="342.39999"
     y2="651.35938"
     fill="none"
     stroke="#000000"
     stroke-linecap="round"
     stroke-linejoin="round"
     stroke-width="2"
     id="line3" />
  <path
     d="m 336.5,779.65938 a 8,8 0 0 0 -0.5,2.1 6.77,6.77 0 1 0 8.2,-6.1 2.36,2.36 0 0 1 -1.8,-2.3 v 0 -5.2"
     fill="none"
     stroke="#0045d4"
     stroke-linecap="round"
     stroke-width="2"
     id="path3" />
  <circle
     cx="342.5"
     cy="763.95935"
     r="4.1999998"
     fill="none"
     stroke="#0045d4"
     stroke-width="2"
     id="circle4" />
  <rect
     x="7"
     y="742.2594"
     width="140"
     height="57"
     fill="none"
     stroke="#000000"
     stroke-width="2"
     id="rect4" />
  <polygon
     points="193,242 179,263 143,263 143,197 193,201 "
     fill="none"
     stroke="#000000"
     stroke-width="2"
     id="polygon4"
     transform="translate(4,551.25938)" />
  <polygon
     points="175,258 160,258 160,243 185,243 "
     fill="none"
     stroke="#0045d4"
     stroke-width="2"
     id="polygon5"
     transform="translate(4,551.25938)" />
  <rect
     x="164"
     y="760.2594"
     width="26"
     height="28"
     fill="none"
     stroke="#0045d4"
     stroke-width="2"
     id="rect5" />
  <polyline
     points="220.2 135.2 139.8 135.2 170.8 199.1"
     fill="none"
     stroke="#000000"
     stroke-width="2"
     id="polyline5"
     transform="translate(4,551.25938)" />
  <rect
     x="61"
     y="873.2594"
     width="120"
     height="17"
     fill="none"
     stroke="#000000"
     stroke-linejoin="round"
     stroke-width="2"
     id="rect6" />
  <line
     x1="261"
     y1="552.7594"
     x2="338"
     y2="641.95935"
     fill="none"
     stroke="#000000"
     stroke-width="2"
     id="line6" />
  <path
     style="fill:none;fill-opacity:1;stroke:none;stroke-width:4.99997;stroke-linecap:butt;stroke-linejoin:miter;stroke-dasharray:none;stroke-opacity:1"
     d="m 183.86641,832.39261 c -56.56435,-73.32945 -74.54938,-65.16435 -73.84172,-169.9869 9.99082,-24.97701 30.36003,-37.44718 50.98446,-49.60838 81.89791,-2.73959 96.59649,17.25298 168.34395,73.66035 z"
     id="path1110-1"
     sodipodi:nodetypes="ccccc" />
  <g
     id="g12"
     transform="rotate(45,1492.1684,758.90478)">
    <path
       style="fill:none;fill-opacity:1;stroke:none;stroke-width:4.99997;stroke-linecap:butt;stroke-linejoin:miter;stroke-dasharray:none;stroke-opacity:1"
       d="m 1263.024,672.98916 c -56.5643,-73.32945 -74.5494,-65.16435 -73.8417,-169.9869 9.9908,-24.97701 30.36,-37.44718 50.9845,-49.60838 81.8979,-2.73959 96.5964,17.25298 168.3439,73.66035 z"
       id="path1110-1-7"
       sodipodi:nodetypes="ccccc" />
    <path
       style="fill:none;fill-opacity:1;stroke:#000000;stroke-width:4.99997;stroke-linecap:butt;stroke-linejoin:miter;stroke-dasharray:none;stroke-opacity:1"
       d="m 1754.7142,751.17927 125.2373,-0.47055 c 49.8653,2.07402 113.5023,56.42457 179.146,88.4211 l -16.1381,19.22136 v 0 c -62.0961,6.54954 -211.6429,53.0759 -249.9387,76.52107 l -22.629,-22.99956"
       id="path1112-4"
       sodipodi:nodetypes="ccccscc" />
    <path
       style="fill:none;fill-opacity:1;stroke:#000000;stroke-width:4.99997;stroke-linecap:butt;stroke-linejoin:miter;stroke-dasharray:none;stroke-opacity:1"
       d="m 1486.5972,1019.6433 -0.4199,125.3294 c 1.1796,45.0399 56.9562,115.1825 88.9551,180.8612 l 18.6731,-17.774 -10e-5,2e-4 c 0,0 52.9524,-211.8229 76.3661,-250.1563 l -22.9919,-22.6356"
       id="path1114-0"
       sodipodi:nodetypes="ccccscc" />
    <path
       style="fill:none;fill-opacity:1;stroke:#000000;stroke-width:4.99997;stroke-linecap:butt;stroke-linejoin:miter;stroke-dasharray:none;stroke-opacity:1"
       d="m 1263.0215,672.99143 -48.613,130.42053 -124.9285,50.45972 c -28.1374,24.31465 -54.3385,39.83244 -84.5339,73.50255 -11.75677,7.6441 -49.76062,88.80117 -79.70686,152.64657 l 37.34002,4.6503 v 0 c 0,0 239.15484,-124.04591 357.12304,-131.51936 l 201.0379,80.09386 252.8114,4.1163 -5.2162,-251.99302 -78.9889,-198.32618 c 3.326,-115.69814 89.1519,-282.85361 130.1523,-360.26929 v 0 l -1.6006,-34.79774 c -56.8862,27.75459 -118.9123,51.64196 -155.5629,77.26243 l -73.4125,84.62381 -50.3753,125.03188 -57.4985,21.48718 -72.801,27.2245"
       id="path1116-9"
       sodipodi:nodetypes="ccccccsccccccccccccc" />
    <path
       style="fill:none;stroke:#000000;stroke-width:4.99997;stroke-linecap:butt;stroke-linejoin:miter;stroke-dasharray:none;stroke-opacity:1"
       d="m 1538.5475,478.89379 20.2039,48.01247"
       id="path1118-6"
       sodipodi:nodetypes="cc" />
    <path
       style="fill:none;stroke:#000000;stroke-width:4.99997;stroke-linecap:butt;stroke-linejoin:miter;stroke-dasharray:none;stroke-opacity:1"
       d="M 1661.7065,562.05303 1633.4112,441.8049 1588.9228,353.86191"
       id="path1120-8"
       sodipodi:nodetypes="ccc" />
    <path
       style="fill:none;stroke:#000000;stroke-width:4.99997;stroke-linecap:butt;stroke-linejoin:miter;stroke-dasharray:none;stroke-opacity:1"
       d="m 1214.4006,803.41083 47.9856,20.19931"
       id="path1122-7"
       sodipodi:nodetypes="cc" />
    <path
       style="fill:none;stroke:#000000;stroke-width:4.99997;stroke-linecap:butt;stroke-linejoin:miter;stroke-dasharray:none;stroke-opacity:1"
       d="M 1297.5438,926.62853 1177.3755,898.35823 1089.48,853.87168"
       id="path1124-1"
       sodipodi:nodetypes="ccc" />
    <path
       style="fill:none;stroke:#000000;stroke-width:4.99997;stroke-linecap:butt;stroke-linejoin:miter;stroke-dasharray:none;stroke-opacity:1"
       d="m 1200.3255,486.19659 c 28.0358,55.76901 43.8405,124.90866 62.6994,186.80447"
       id="path1126-8"
       sodipodi:nodetypes="cc" />
    <path
       style="fill:none;stroke:#000000;stroke-width:4.99997;stroke-linecap:butt;stroke-linejoin:miter;stroke-dasharray:none;stroke-opacity:1"
       d="m 1235.8552,745.87584 68.6808,201.23414"
       id="path1128-7"
       sodipodi:nodetypes="cc" />
    <path
       style="fill:none;stroke:#000000;stroke-width:4.99997;stroke-linecap:butt;stroke-linejoin:miter;stroke-dasharray:none;stroke-opacity:1"
       d="m 1481.0365,500.38021 201.1368,68.65644"
       id="path1130-9"
       sodipodi:nodetypes="cc" />
    <path
       style="fill:none;stroke:#000000;stroke-width:4.99997;stroke-linecap:butt;stroke-linejoin:miter;stroke-dasharray:none;stroke-opacity:1"
       d="M 1263.0242,672.98916 1408.248,527.60547"
       id="path1132-8-1" />
    <path
       style="fill:none;stroke:#000000;stroke-width:5.00787;stroke-linecap:butt;stroke-linejoin:miter;stroke-miterlimit:4;stroke-dasharray:none;stroke-dashoffset:0;stroke-opacity:1"
       d="M 1520.7402,1033.2456 1304.536,947.10998"
       id="path1134-1"
       sodipodi:nodetypes="cc" />
    <path
       style="fill:none;stroke:#000000;stroke-width:5.00787;stroke-linecap:butt;stroke-linejoin:miter;stroke-miterlimit:4;stroke-dasharray:none;stroke-dashoffset:0;stroke-opacity:1"
       d="M 1768.3354,785.36888 1682.1733,569.03665"
       id="path1136-1"
       sodipodi:nodetypes="cc" />
    <path
       style="fill:none;stroke:#000000;stroke-width:1.88976;stroke-linecap:butt;stroke-linejoin:miter;stroke-miterlimit:4;stroke-dasharray:none;stroke-dashoffset:0;stroke-opacity:1"
       d="M 1773.5516,1037.3619 1336.1338,599.79615"
       id="path1138-8" />
    <path
       style="fill:none;stroke:#000000;stroke-width:1.88976;stroke-linecap:butt;stroke-linejoin:miter;stroke-miterlimit:4;stroke-dasharray:none;stroke-dashoffset:0;stroke-opacity:1"
       d="M 962.57926,1084.6711 C 1046.7278,1016.654 1156.9787,947.17896 1304.536,947.10998"
       id="path1140-6"
       sodipodi:nodetypes="cc" />
    <path
       style="fill:none;stroke:#000000;stroke-width:1.88976;stroke-linecap:butt;stroke-linejoin:miter;stroke-miterlimit:4;stroke-dasharray:none;stroke-dashoffset:0;stroke-opacity:1"
       d="m 1662.0419,1050.3884 c -63.316,66.0298 -80.8086,154.6076 -68.2364,257.6715"
       id="path1142-1"
       sodipodi:nodetypes="cc" />
    <path
       style="fill:none;stroke:#000000;stroke-width:1.88976;stroke-linecap:butt;stroke-linejoin:miter;stroke-miterlimit:4;stroke-dasharray:none;stroke-dashoffset:0;stroke-opacity:1"
       d="m 1819.4988,226.77341 c -67.9345,84.23792 -137.3125,194.59634 -137.3255,342.26324"
       id="path1144-8"
       sodipodi:nodetypes="cc" />
    <path
       style="fill:none;stroke:#000000;stroke-width:1.88976;stroke-linecap:butt;stroke-linejoin:miter;stroke-miterlimit:4;stroke-dasharray:none;stroke-dashoffset:0;stroke-opacity:1"
       d="m 1785.5051,926.73814 c 65.9559,-63.38797 154.4628,-80.928 257.4542,-68.38734"
       id="path1146-5"
       sodipodi:nodetypes="cc" />
    <path
       style="fill:none;stroke:#000000;stroke-width:4.99997;stroke-linecap:butt;stroke-linejoin:miter;stroke-dasharray:none;stroke-opacity:1"
       d="m 1222.9576,465.17297 c 55.7387,28.03427 123.7004,43.03446 185.5557,61.88296"
       id="path1148-5"
       sodipodi:nodetypes="cc" />
    <path
       id="path1150-5"
       style="fill:none;fill-opacity:1;stroke:#000000;stroke-width:4.99997;stroke-linecap:butt;stroke-linejoin:miter;stroke-dasharray:none;stroke-opacity:1"
       d="m 1189.1825,503.00226 c 2.041,31.28939 2.3935,62.15735 17.2772,96.65745 l 56.5618,73.33172"
       sodipodi:nodetypes="ccc" />
    <path
       style="fill:none;stroke:#000000;stroke-width:4.99997;stroke-linecap:butt;stroke-linejoin:miter;stroke-dasharray:none;stroke-opacity:1"
       d="m 1206.4597,599.65971 16.8897,0.13228 19.9431,4.96214"
       id="path1152-7"
       sodipodi:nodetypes="ccc" />
    <path
       id="path1154-3"
       style="fill:none;fill-opacity:1;stroke:#000000;stroke-width:4.99997;stroke-linecap:butt;stroke-linejoin:miter;stroke-dasharray:none;stroke-opacity:1"
       d="m 1240.1695,453.39558 c 31.2674,2.02885 62.1127,2.37147 96.5937,17.25128 l 73.3009,56.57518"
       sodipodi:nodetypes="ccc" />
    <path
       style="fill:none;stroke:#000000;stroke-width:4.99997;stroke-linecap:butt;stroke-linejoin:miter;stroke-dasharray:none;stroke-opacity:1"
       d="m 1336.7632,470.64686 0.1512,16.90375 4.9668,19.95552"
       id="path1156-0"
       sodipodi:nodetypes="ccc" />
    <path
       style="fill:none;stroke:#000000;stroke-width:5.00787;stroke-linecap:round;stroke-linejoin:miter;stroke-miterlimit:4;stroke-dasharray:none;stroke-opacity:1"
       d="m 1189.1823,503.00226 c 15.2351,-33.18954 34.4797,-38.58123 50.9845,-49.60838"
       id="path1158-0"
       sodipodi:nodetypes="cc" />
  </g>
  <path
     style="fill:none;stroke:#000000;stroke-width:1px;stroke-linecap:butt;stroke-linejoin:miter;stroke-opacity:1"
     d="m 1509.0309,2149.4131 174.4976,-181.8744 92.0442,-213.8959 -93.6777,-190.7725 -70.1449,-32.4221 -102.6146,0.2601"
     id="path8" />
  <path
     style="fill:none;stroke:#000000;stroke-width:1px;stroke-linecap:butt;stroke-linejoin:miter;stroke-opacity:1"
     d="m 1509.0309,2149.4131 -175.854,-181.6754 -91.9723,-213.7865 93.7293,-190.8587 70.7509,-32.3348 103.4507,-0.049"
     id="path9" />
  <path
     style="fill:none;stroke:#000000;stroke-width:1px;stroke-linecap:butt;stroke-linejoin:miter;stroke-opacity:1"
     d="m 1405.6848,1530.7577 c 31.0671,-55.3594 64.3262,-105.527 88.6573,-176.8402 l -20.8076,5.4826 c -21.6061,22.5958 -40.939,48.5345 -56.1303,80.564 z"
     id="path10"
     sodipodi:nodetypes="ccccc" />
  <path
     style="fill:none;stroke:#000000;stroke-width:1px;stroke-linecap:butt;stroke-linejoin:miter;stroke-opacity:1"
     d="m 1439.8298,1469.5833 -10.5764,-17.5829 -11.8492,-12.0363"
     id="path11" />
  <path
     style="fill:none;stroke:#000000;stroke-width:1px;stroke-linecap:butt;stroke-linejoin:miter;stroke-opacity:1"
     d="m 1611.7501,1530.4482 c -31.0671,-55.3594 -64.3262,-105.527 -88.6573,-176.8402 l 20.8076,5.4826 c 21.6061,22.5958 40.939,48.5345 56.1303,80.564 z"
     id="path12"
     sodipodi:nodetypes="ccccc" />
  <path
     style="fill:none;stroke:#000000;stroke-width:1px;stroke-linecap:butt;stroke-linejoin:miter;stroke-opacity:1"
     d="m 1577.6051,1469.2738 10.5764,-17.5829 11.8492,-12.0363"
     id="path13" />
  <path
     style="fill:none;stroke:#000000;stroke-width:1px;stroke-linecap:butt;stroke-linejoin:miter;stroke-opacity:1"
     d="m 1523.0928,1353.608 -28.7507,0.3095"
     id="path14" />
  <path
     style="fill:none;stroke:#000000;stroke-width:1px;stroke-linecap:butt;stroke-linejoin:miter;stroke-opacity:1"
     d="m 1509.1355,1530.7085 -0.1046,618.7048"
     id="path1" />
  <path
     style="fill:none;stroke:#000000;stroke-width:1px;stroke-linecap:butt;stroke-linejoin:miter;stroke-opacity:1"
     d="m 1698.0754,1933.7343 c 83.6572,80.1556 111.4884,85.3771 153.038,277.4189 l -25.0029,2.1802 c -79.8319,-51.0342 -156.3743,-90.4829 -230.842,-122.6248 l 1.0109,-32.2328"
     id="path2"
     sodipodi:nodetypes="ccccc" />
  <path
     style="fill:none;stroke:#000000;stroke-width:1px;stroke-linecap:butt;stroke-linejoin:miter;stroke-opacity:1"
     d="m 1318.63,1933.9333 c -83.6572,80.1556 -111.4884,85.3771 -153.038,277.4189 l 25.0029,2.1802 c 79.8319,-51.0342 156.3743,-90.4829 230.8419,-122.6248 l -1.0109,-32.2328"
     id="path5"
     sodipodi:nodetypes="ccccc" />
  <path
     style="fill:none;stroke:#000000;stroke-width:1px;stroke-linecap:butt;stroke-linejoin:miter;stroke-opacity:1"
     d="m 1826.1105,2213.3334 c -56.9692,-75.0203 -128.6441,-127.4569 -230.4045,-133.6908"
     id="path30"
     sodipodi:nodetypes="cc" />
  <path
     style="fill:none;stroke:#000000;stroke-width:1px;stroke-linecap:butt;stroke-linejoin:miter;stroke-opacity:1"
     d="m 1190.5949,2213.5324 c 56.9692,-75.0203 128.6441,-127.4569 230.4045,-133.6908"
     id="path31"
     sodipodi:nodetypes="cc" />
  <path
     style="fill:none;stroke:#000000;stroke-width:1px;stroke-linecap:butt;stroke-linejoin:miter;stroke-opacity:1"
     d="m 1334.9339,1563.0925 -55.8492,25.5191 -124.0182,-52.6574 c -137.3948,-23.3245 -180.45251,9.954 -276.04734,43.7759 l 23.11512,29.6916 c 119.82702,43.1535 244.32422,76.2485 345.52232,159.5259"
     id="path32"
     sodipodi:nodetypes="cccccc" />
  <path
     style="fill:none;stroke:#000000;stroke-width:1px;stroke-linecap:butt;stroke-linejoin:miter;stroke-opacity:1"
     d="m 1279.0847,1588.6116 19.6428,48.2071"
     id="path33" />
  <path
     style="fill:none;stroke:#000000;stroke-width:1px;stroke-linecap:butt;stroke-linejoin:miter;stroke-opacity:1"
     d="m 1250.7429,1734.5244 -64.9817,-104.9619 -30.6947,-93.6083"
     id="path34" />
  <path
     style="fill:none;stroke:#000000;stroke-width:1px;stroke-linecap:butt;stroke-linejoin:miter;stroke-opacity:1"
     d="m 1241.2046,1753.9512 c -86.7485,-87.0177 -200.1455,-134.642 -339.07039,-144.5295"
     id="path35"
     sodipodi:nodetypes="cc" />
  <path
     style="fill:none;stroke:#000000;stroke-width:1px;stroke-linecap:butt;stroke-linejoin:miter;stroke-opacity:1"
     d="m 1681.895,1562.8703 55.8492,25.5191 124.0182,-52.6574 c 137.3948,-23.3245 180.4526,9.954 276.0474,43.7759 l -23.1151,29.6916 c -119.8271,43.1535 -244.3243,76.2485 -345.5224,159.5259"
     id="path36"
     sodipodi:nodetypes="cccccc" />
  <path
     style="fill:none;stroke:#000000;stroke-width:1px;stroke-linecap:butt;stroke-linejoin:miter;stroke-opacity:1"
     d="m 1737.7442,1588.3894 -19.6428,48.2071"
     id="path37" />
  <path
     style="fill:none;stroke:#000000;stroke-width:1px;stroke-linecap:butt;stroke-linejoin:miter;stroke-opacity:1"
     d="m 1766.086,1734.3022 64.9817,-104.9619 30.6947,-93.6083"
     id="path38" />
  <path
     style="fill:none;stroke:#000000;stroke-width:1px;stroke-linecap:butt;stroke-linejoin:miter;stroke-opacity:1"
     d="m 1775.6244,1753.729 c 86.7485,-87.0177 200.1455,-134.642 339.0703,-144.5295"
     id="path39"
     sodipodi:nodetypes="cc" />
  <g
     id="g59"
     transform="matrix(1.1333333,0,0,1.1333333,-20.272997,-14.729117)"
     style="stroke-width:0.882354;stroke:#75b298;stroke-opacity:1">
    <path
       style="fill:none;stroke:#75b298;stroke-width:0.882354px;stroke-linecap:butt;stroke-linejoin:miter;stroke-opacity:1"
       d="M 242.33729,237.25655 240.95717,170.58338 218.1601,113.34544 164.94267,95.180085 145.75353,102.2376 126.60419,121.48428"
       id="path40" />
    <path
       style="fill:none;stroke:#75b298;stroke-width:0.882354px;stroke-linecap:butt;stroke-linejoin:miter;stroke-opacity:1"
       d="m 242.33729,237.25655 -66.88971,-1.08913 -57.20405,-22.79005 -18.17179,-53.24322 7.18722,-19.28615 19.34529,-19.36365"
       id="path41" />
    <path
       style="fill:none;stroke:#75b298;stroke-width:0.882354px;stroke-linecap:butt;stroke-linejoin:miter;stroke-opacity:1"
       d="M 107.25896,140.848 C 102.71413,124.67858 99.550751,109.07038 90.760916,91.176415 l -2.86712,4.91858 c 0.185173,8.269695 1.42103,16.739495 4.571262,25.573985 z"
       id="path42"
       sodipodi:nodetypes="ccccc" />
    <path
       style="fill:none;stroke:#75b298;stroke-width:0.882354px;stroke-linecap:butt;stroke-linejoin:miter;stroke-opacity:1"
       d="m 102.20207,123.01481 -5.268299,-1.31085 -4.468713,-0.035"
       id="path43" />
    <path
       style="fill:none;stroke:#75b298;stroke-width:0.882354px;stroke-linecap:butt;stroke-linejoin:miter;stroke-opacity:1"
       d="m 145.75353,102.2376 c -16.1694,-4.544845 -31.7776,-7.708225 -49.671575,-16.498035 l 4.918595,-2.86712 c 8.26969,0.18517 16.7395,1.42101 25.57397,4.57124 z"
       id="path44"
       sodipodi:nodetypes="ccccc" />
    <path
       style="fill:none;stroke:#75b298;stroke-width:0.882354px;stroke-linecap:butt;stroke-linejoin:miter;stroke-opacity:1"
       d="m 127.92036,97.180695 -1.31084,-5.26828 -0.035,-4.46873"
       id="path45" />
    <path
       style="fill:none;stroke:#75b298;stroke-width:0.882354px;stroke-linecap:butt;stroke-linejoin:miter;stroke-opacity:1"
       d="m 96.081955,85.739565 -5.321039,5.43685"
       id="path46" />
    <path
       style="fill:none;stroke:#75b298;stroke-width:0.882354px;stroke-linecap:butt;stroke-linejoin:miter;stroke-opacity:1"
       d="m 126.60423,121.48432 115.7331,115.77225"
       id="path47" />
    <path
       style="fill:none;stroke:#75b298;stroke-width:0.882354px;stroke-linecap:butt;stroke-linejoin:miter;stroke-opacity:1"
       d="m 237.35431,161.53739 c 30.64752,-0.6551 36.83132,-4.88512 80.53363,23.27027 l -4.26986,5.08564 c -24.48357,5.38773 -46.18421,12.32753 -66.12965,20.24621 l -5.84126,-6.21952"
       id="path48"
       sodipodi:nodetypes="ccccc" />
    <path
       style="fill:none;stroke:#75b298;stroke-width:0.882354px;stroke-linecap:butt;stroke-linejoin:miter;stroke-opacity:1"
       d="m 166.40159,232.56455 c -0.65512,30.64754 -4.88514,36.83133 23.27025,80.53365 l 5.08565,-4.26987 c 5.38774,-24.48359 12.32756,-46.1842 20.24622,-66.12964 l -6.21952,-5.84126"
       id="path49"
       sodipodi:nodetypes="ccccc" />
    <path
       style="fill:none;stroke:#75b298;stroke-width:0.882354px;stroke-linecap:butt;stroke-linejoin:miter;stroke-opacity:1"
       d="m 313.61808,189.8933 c -24.69375,-3.37716 -47.91361,0.22212 -68.11813,18.09404"
       id="path50"
       sodipodi:nodetypes="cc" />
    <path
       style="fill:none;stroke:#75b298;stroke-width:0.882354px;stroke-linecap:butt;stroke-linejoin:miter;stroke-opacity:1"
       d="m 194.75749,308.82833 c -3.37715,-24.69374 0.22213,-47.9136 18.09405,-68.11812"
       id="path51"
       sodipodi:nodetypes="cc" />
    <path
       style="fill:none;stroke:#75b298;stroke-width:0.882354px;stroke-linecap:butt;stroke-linejoin:miter;stroke-opacity:1"
       d="m 100.07174,160.13415 -5.674414,15.22311 -33.054004,13.35078 c -30.068773,21.34127 -31.898353,35.62292 -43.455383,59.83533 l 9.87955,1.23039 C 58.259307,235.42899 87.74302,218.32868 122.2563,214.97591"
       id="path52"
       sodipodi:nodetypes="cccccc" />
    <path
       style="fill:none;stroke:#75b298;stroke-width:0.882354px;stroke-linecap:butt;stroke-linejoin:miter;stroke-opacity:1"
       d="m 94.397326,175.35726 12.693944,5.34404"
       id="path53" />
    <path
       style="fill:none;stroke:#75b298;stroke-width:0.882354px;stroke-linecap:butt;stroke-linejoin:miter;stroke-opacity:1"
       d="M 116.39352,207.95831 84.598999,200.47846 61.343322,188.70804"
       id="path54" />
    <path
       style="fill:none;stroke:#75b298;stroke-width:0.882354px;stroke-linecap:butt;stroke-linejoin:miter;stroke-opacity:1"
       d="m 118.24353,213.37737 c -32.50968,-0.0504 -62.634956,12.25496 -90.476061,36.39641"
       id="path55"
       sodipodi:nodetypes="cc" />
    <path
       style="fill:none;stroke:#75b298;stroke-width:0.882354px;stroke-linecap:butt;stroke-linejoin:miter;stroke-opacity:1"
       d="m 164.94267,95.180085 15.22309,-5.67441 13.35079,-33.05401 c 21.34127,-30.06877 35.62294,-31.89838 59.83534,-43.45538 l 1.2304,9.87954 c -14.34478,30.49182 -31.44509,59.97554 -34.79786,94.488835"
       id="path56"
       sodipodi:nodetypes="cccccc" />
    <path
       style="fill:none;stroke:#75b298;stroke-width:0.882354px;stroke-linecap:butt;stroke-linejoin:miter;stroke-opacity:1"
       d="m 180.16576,89.505675 5.34406,12.693945"
       id="path57" />
    <path
       style="fill:none;stroke:#75b298;stroke-width:0.882354px;stroke-linecap:butt;stroke-linejoin:miter;stroke-opacity:1"
       d="M 212.76683,111.50187 205.28698,79.707345 193.51655,56.451665"
       id="path58" />
    <path
       style="fill:none;stroke:#75b298;stroke-width:0.882354px;stroke-linecap:butt;stroke-linejoin:miter;stroke-opacity:1"
       d="m 218.18588,113.35188 c -0.0504,-32.509705 12.25498,-62.634945 36.39641,-90.476055"
       id="path59"
       sodipodi:nodetypes="cc" />
  </g>
</svg>
